<?xml version="1.0" encoding="UTF-8"?>
<!DOCTYPE svg PUBLIC "-//W3C//DTD SVG 1.1//EN" "http://www.w3.org/Graphics/SVG/1.1/DTD/svg11.dtd">
<!-- Creator: CorelDRAW 2018 (64-Bit Evaluation Version) -->
<svg xmlns="http://www.w3.org/2000/svg" xml:space="preserve" width="8.5in" height="11in" version="1.1" style="shape-rendering:geometricPrecision; text-rendering:geometricPrecision; image-rendering:optimizeQuality; fill-rule:evenodd; clip-rule:evenodd"
viewBox="0 0 8500 11000"
 xmlns:xlink="http://www.w3.org/1999/xlink">
 <defs>
  <style type="text/css">
   <![CDATA[
    .str6 {stroke:#373435;stroke-width:55.56;stroke-miterlimit:2.61313}
    .str7 {stroke:#373435;stroke-width:111.11;stroke-miterlimit:2.61313}
    .str1 {stroke:#89AA1C;stroke-width:41.67;stroke-miterlimit:2.61313}
    .str0 {stroke:#F7B304;stroke-width:41.67;stroke-miterlimit:2.61313}
    .str2 {stroke:#F7B304;stroke-width:13.89;stroke-miterlimit:2.61313}
    .str8 {stroke:#E6E7E8;stroke-width:6.94;stroke-miterlimit:2.61313}
    .str5 {stroke:#373435;stroke-width:6.94;stroke-miterlimit:2.61313}
    .str3 {stroke:#F7B304;stroke-width:6.94;stroke-miterlimit:2.61313}
    .str4 {stroke:#373435;stroke-width:3;stroke-miterlimit:2.61313}
    .fil8 {fill:none}
    .fil3 {fill:#FEFEFE}
    .fil1 {fill:#373435}
    .fil4 {fill:#FFF212}
    .fil23 {fill:#115A7D}
    .fil13 {fill:#154C76}
    .fil30 {fill:#23333C}
    .fil18 {fill:#236E78}
    .fil22 {fill:#247DAA}
    .fil28 {fill:#251D1B}
    .fil14 {fill:#3B0A04}
    .fil20 {fill:#48A6B2}
    .fil6 {fill:#89AA1C}
    .fil16 {fill:#A7DEE4}
    .fil19 {fill:#AADDEB}
    .fil5 {fill:#ABCB2B}
    .fil26 {fill:#AEC401}
    .fil0 {fill:#E5F2FF}
    .fil29 {fill:#EE942C}
    .fil12 {fill:#EFEFEF}
    .fil27 {fill:#F4E0AF}
    .fil31 {fill:#F76A2F}
    .fil9 {fill:#F7B304}
    .fil24 {fill:#FF2F2F}
    .fil25 {fill:#FF5151}
    .fil2 {fill:#FF611C}
    .fil17 {fill:#FF7138}
    .fil21 {fill:#FFB833}
    .fil10 {fill:#FFC310}
    .fil7 {fill:#FFDE00}
    .fil15 {fill:white}
    .fil11 {fill:#F7B304;fill-rule:nonzero}
   ]]>
  </style>
 </defs>
 <g id="Layer_x0020_1">
  <metadata id="CorelCorpID_0Corel-Layer"/>
  <rect class="fil0" x="202.87" y="2948.84" width="8017.46" height="5131.62"/>
  <path class="fil1" d="M2794.36 6927.57l3020.62 -9.15c0,-739.13 -0,-1431.81 -0,-2170.94 -7.52,-89.67 -72.41,-131.32 -121.81,-133.28 -950.65,0.76 -1831.39,1.47 -2782.04,2.23 -43.66,0.8 -109.42,74.79 -118.61,138.28 0,0 4.96,2172.85 1.84,2172.86z"/>
  <path class="fil0" d="M2898.33 6812.92l2837.92 1.05c-0.01,-691.01 -0.02,-1382.01 -0.02,-2073.02 1.55,-39.58 -10.41,-54.89 -40.08,-53.83l-2745.66 -1.05c-26.1,1.24 -47.07,14.61 -50.33,59.12l-1.83 2067.72z"/>
  <path class="fil2" d="M2702.3 3690.79c263.44,-1.41 526.89,-2.81 790.33,-4.22 32.39,3.69 55.69,33.78 55.92,69.67l1.86 576.31c0.93,32.89 -19.1,65.8 -55.92,65.44l-799.65 0c-39.92,-1.94 -64.93,-21.29 -65.24,-73.89 1.24,-191.4 2.48,-382.8 3.73,-574.2 1.55,-22.87 25.47,-61.3 68.96,-59.11z"/>
  <rect class="fil1" x="2632.29" y="3831.19" width="916.76" height="156.21"/>
  <rect class="fil3" x="2659.42" y="4062.09" width="350.43" height="67.55"/>
  <rect class="fil3" x="3145.92" y="4055.76" width="369.07" height="67.55"/>
  <rect class="fil4" x="3279.88" y="4157.09" width="155.63" height="67.55"/>
  <path class="fil5" d="M734.23 5619.24c0.62,-98.87 1.24,-197.73 1.86,-296.6 0.35,-22.78 11.19,-23.8 22.37,-7.39 157.82,108.36 319.14,50.75 479.06,-10.56 169.11,-64.07 397.65,-142.85 534.97,-13.2l19.11 34.31 -0.92 572.61c-0.74,16.49 -10.91,23.22 -32.62,15.83 -182.05,-117.16 -444.25,-19 -674.76,79.17 -117.43,41.52 -231.13,-9.85 -346.7,-14.78l-2.36 -359.39z"/>
  <path class="fil6" d="M804.69 5502.39l0 60.16 19.58 333.53 203.17 54.89c92.57,-9.15 187.97,-48.02 277.73,-90.78 108.73,-41.52 204.42,-65.09 315.02,-61.22 17.86,-29.02 50.64,-68.61 96.93,-82.33l0.02 -316.67c-44.27,-30.26 -79.22,-75.3 -100.65,-128.78 -127.69,-10.2 -252.24,39.2 -374.66,86.56 -112.77,34.48 -210.63,77.4 -341.11,65.44 -21.29,42.23 -53.76,66.52 -96.02,79.19z"/>
  <ellipse class="fil7" cx="857.87" cy="5799.46" rx="198.52" ry="227.99"/>
  <ellipse class="fil8 str0" cx="862.35" cy="5803.85" rx="153.56" ry="175.81"/>
  <path class="fil5" d="M1173.12 5470.41c56.23,-78.28 135.76,-113.81 207.84,-55.94 45.98,53.83 73.31,205.82 9.32,310.32 -40.39,73.89 -91.02,121.39 -163.09,133 -50.95,-3.17 -96.31,-43.28 -113.7,-142.5 -17.4,-84.79 14.59,-179.09 59.64,-244.88z"/>
  <path class="fil6 str1" d="M1232.58 5793.66l4.85 -30.65c-13.17,-1.92 -23.6,-5.34 -31.27,-10.28 -7.68,-4.93 -13.69,-12.94 -18.1,-23.91 -4.41,-11.03 -5.81,-24.43 -4.32,-40.34l28 -5.92c-0.52,16.54 1.25,28.67 5.36,36.39 5.85,10.91 14.01,17 24.42,18.28l15.23 -96.18c-10.61,-3.25 -21.09,-8.59 -31.5,-15.96 -7.76,-5.4 -13.17,-12.94 -16.31,-22.58 -3.13,-9.69 -3.71,-20.61 -1.77,-32.85 3.45,-21.76 13.06,-39.41 28.78,-52.93 10.5,-9.05 24.92,-14.63 43.13,-16.66l2.32 -14.63 15.99 0 -2.32 14.63c15.37,1.69 26.93,6.96 34.72,15.73 9.97,11.14 14.62,26.47 13.95,45.91l-28.45 4.87c0.33,-12.13 -1.52,-21.48 -5.57,-27.92 -3.99,-6.5 -10.24,-10.74 -18.72,-12.83l-13.97 88.22c12.96,3.94 21.44,7.02 25.5,9.17 7.74,4.18 13.75,9.29 18.07,15.32 4.38,5.98 7.3,13.12 8.85,21.42 1.52,8.24 1.52,17.24 -0,26.87 -3.35,21.19 -12.09,38.83 -26.24,53.05 -14.13,14.16 -30.7,21.7 -49.73,22.75l-4.91 31 -15.99 0zm42.48 -268.16c-10.74,1.8 -19.8,6.56 -27.02,14.33 -7.27,7.72 -11.74,16.83 -13.41,27.4 -1.65,10.44 -0.48,19.21 3.53,26.23 4.01,7.02 11.88,12.36 23.61,15.96l13.3 -83.93zm-17.55 211.74c10.74,-1.45 20.21,-6.61 28.49,-15.5 8.22,-8.82 13.39,-19.8 15.44,-32.8 1.76,-11.14 0.76,-20.02 -3.03,-26.81 -3.8,-6.73 -12.63,-12.19 -26.41,-16.43l-14.5 91.53z"/>
  <path class="fil9 str2" d="M856.76 5929.96l0.13 -25.48c-11.2,-1.59 -20.3,-4.44 -27.31,-8.54 -7.01,-4.1 -13.02,-10.76 -18.09,-19.88 -5.06,-9.17 -7.94,-20.31 -8.72,-33.53l22.52 -4.93c1.68,13.75 4.69,23.84 9.09,30.25 6.26,9.07 13.81,14.14 22.63,15.2l0.42 -79.94c-9.23,-2.7 -18.62,-7.14 -28.22,-13.27 -7.13,-4.49 -12.6,-10.76 -16.43,-18.77 -3.83,-8.06 -5.7,-17.13 -5.65,-27.31 0.09,-18.09 5.84,-32.76 17.19,-44 7.58,-7.52 18.85,-12.16 33.73,-13.85l0.07 -12.16 13.29 0 -0.06 12.16c12.98,1.4 23.27,5.79 30.86,13.07 9.71,9.26 15.52,22 17.44,38.17l-23.03 4.05c-1.26,-10.08 -4,-17.85 -8.18,-23.2 -4.15,-5.41 -9.88,-8.93 -17.2,-10.67l-0.39 73.34c11.27,3.28 18.71,5.84 22.37,7.62 6.97,3.48 12.61,7.72 16.97,12.74 4.41,4.97 7.74,10.91 10.09,17.81 2.31,6.85 3.46,14.33 3.42,22.34 -0.09,17.61 -5.11,32.28 -15.06,44.1 -9.94,11.77 -22.76,18.04 -38.44,18.91l-0.14 25.77 -13.29 0zm1.17 -222.91c-8.7,1.5 -15.62,5.45 -20.64,11.92 -5.06,6.42 -7.61,13.99 -7.66,22.77 -0.05,8.69 2.04,15.97 6.27,21.81 4.23,5.84 11.45,10.28 21.66,13.27l0.37 -69.76zm12.37 176.01c8.74,-1.21 15.96,-5.5 21.71,-12.88 5.7,-7.33 8.61,-16.45 8.66,-27.26 0.05,-9.26 -1.91,-16.65 -5.93,-22.29 -4.02,-5.6 -12.05,-10.13 -24.04,-13.65l-0.4 76.09z"/>
  <rect class="fil10" x="5186.31" y="3573.65" width="592.75" height="591.08"/>
  <path class="fil11" d="M5777.19 3582.11l-575.97 582.64 575.97 0 0 -582.64zm-287.98 291.31m0 291.32m287.98 -291.32"/>
  <path class="fil12" d="M5206.27 4191.08l579.3 -1 -0.93 -493.98 177.08 4.22c30.44,4.22 54.83,14.25 74.56,38 56.85,79.52 113.7,159.03 170.54,238.55 18.01,26.92 26.7,52.78 28.87,82.33l1.4 90.24 -9.32 10.03 0 32.19c16.15,-0.35 30.91,1.41 38.68,14.78l0.46 81.8c3.44,0.04 6.83,0.33 10.27,0.37 3.26,3.35 2.5,9.41 -0.6,11.98l-9.67 0.32c-0.31,16.27 -3.88,24.36 -21.9,24.28 -335.21,-0.18 -670.42,-0.35 -1005.63,-0.52 -14.85,-0.48 -30.39,1.06 -36.35,-25.33l3.24 -108.25z"/>
  <path class="fil13" d="M5920.02 4021l183.6 2.11c14.06,-1.14 24.45,-10 26.1,-29.56l0 -30.61c-2.25,-19.88 -9.4,-35.27 -21.44,-51.72l-86.67 -121.38c-8.39,-11.17 -14.01,-18.43 -30.76,-20.06l-79.69 0.26c-16.16,0.96 -23.81,11.96 -26.1,32.19 0.15,64.21 0.3,128.42 0.45,192.63 1.25,24.41 17.89,25.37 34.5,26.13z"/>
  <ellipse class="fil9 str3" cx="5456.48" cy="4386.1" rx="108.57" ry="126.92"/>
  <ellipse class="fil14 str4" cx="5456.48" cy="4386.1" rx="85.04" ry="99.41"/>
  <ellipse class="fil9 str4" cx="5456.48" cy="4386.1" rx="44.01" ry="51.45"/>
  <ellipse class="fil9 str3" cx="6034.03" cy="4380.56" rx="108.57" ry="126.92"/>
  <ellipse class="fil14 str4" cx="6034.03" cy="4380.56" rx="85.04" ry="99.41"/>
  <ellipse class="fil9 str4" cx="6034.03" cy="4380.56" rx="44.01" ry="51.45"/>
  <path class="fil2" d="M6561.52 5208.09c370.31,1.41 740.63,2.81 1110.94,4.22 76.11,-1.06 77.67,45.39 74.56,101.33 -9.94,43.63 -19.88,87.26 -29.82,130.88 -19.57,40.11 -27.03,78.11 -100.65,76 -331.79,0 -663.58,0 -995.37,0 -36.04,-0.88 -75.8,-23.93 -85.74,-67.56l-31.69 -143.55c0.16,-40.11 12.89,-87.61 57.78,-101.33z"/>
  <path class="fil15" d="M6603.89 5524.22l106.25 430.65c17.09,46.62 40.23,62.63 76.43,71.78l656.12 -2.11c33.86,-1.41 68.19,-14.43 87.61,-54.89l117.43 -447.54 -1043.83 2.11z"/>
  <polygon class="fil16" points="6654.67,5520.52 6754.39,5520.52 6792.61,5725.29 6710.59,5727.4 "/>
  <polygon class="fil16" points="6783.29,5520.52 6893.26,5520.52 6923.09,5725.29 6824.3,5725.29 "/>
  <polygon class="fil16" points="6928.68,5520.52 6943.59,5723.18 7047.97,5725.29 7048.91,5520.52 "/>
  <path class="fil16" d="M6725.5 5786.51l81.08 -1.06 32.62 179.43c-12.43,0.35 -24.85,0.7 -37.28,1.06 -39.92,-18.12 -62.14,-102.21 -76.43,-179.43z"/>
  <polygon class="fil16" points="6834.54,5781.23 6928.67,5782.29 6951.04,5964.89 6875.55,5967 "/>
  <polygon class="fil16" points="6955.7,5787.57 6977.14,5967 7055.43,5969.11 7056.36,5786.51 "/>
  <polygon class="fil16" points="7499.98,5521.57 7457.11,5730.56 7542.85,5726.34 7593.18,5519.46 "/>
  <path class="fil16" d="M7445.93 5781.23c26.72,0 53.44,0 80.15,0 -10.87,76.53 -37.59,178.91 -68.97,183.66l-46.6 4.22 35.41 -187.88z"/>
  <polygon class="fil16" points="7322.9,5787.56 7416.1,5785.45 7382.55,5962.78 7302.4,5967 "/>
  <polygon class="fil16" points="7351.79,5520.52 7472.02,5520.52 7430.08,5724.23 7333.15,5723.17 "/>
  <path class="fil16" d="M7205.47 5520.52l126.75 0 -24.23 201.6 -101.59 4.22c0,0 0,-205.82 -0.93,-205.82z"/>
  <polygon class="fil16" points="7201.74,5787.56 7196.15,5967 7279.1,5965.94 7301.46,5783.33 "/>
  <polygon class="fil16" points="7078.72,5785.44 7172.85,5785.44 7172.85,5969.11 7079.65,5969.11 "/>
  <polygon class="fil16" points="7077.78,5728.45 7184.03,5728.45 7185.9,5519.46 7075,5520.46 "/>
  <path class="fil1 str5" d="M7055.39 4896.16c43.5,-65.79 68.35,-10.2 49.4,36.94 -49.4,129.83 -98.79,259.65 -148.19,389.48 -20.81,40.46 -64.93,23.93 -48.46,-33.78 49.09,-130.88 98.17,-261.76 147.26,-392.65z"/>
  <path class="fil1 str5" d="M7316.35 5318.97c43.5,65.79 68.35,10.2 49.4,-36.94 -49.4,-129.83 -98.79,-259.65 -148.19,-389.48 -20.81,-40.46 -64.93,-23.93 -48.46,33.78 49.09,130.88 98.17,261.76 147.26,392.65z"/>
  <rect class="fil17" x="4461.62" y="5188" width="1099.75" height="865.51"/>
  <rect class="fil3" x="4515.67" y="5276.67" width="687.81" height="61.22"/>
  <rect class="fil3" x="4929.48" y="5409.66" width="221.82" height="451.76"/>
  <rect class="fil3" x="5261.27" y="5403.33" width="229.27" height="198.44"/>
  <rect class="fil3" x="5261.27" y="5280.89" width="219.95" height="48.55"/>
  <rect class="fil3" x="5263.13" y="5643.98" width="229.27" height="219.54"/>
  <g id="_1973723662304">
   <rect class="fil3" x="4534.3" y="5393.82" width="315.01" height="14.78"/>
   <rect class="fil3" x="4534.3" y="5855.87" width="315.01" height="14.78"/>
   <rect class="fil3" x="4534.48" y="5412.28" width="315.01" height="14.78"/>
   <rect class="fil3" x="4534.65" y="5430.75" width="315.01" height="14.78"/>
   <rect class="fil3" x="4534.82" y="5449.22" width="315.01" height="14.78"/>
   <rect class="fil3" x="4535" y="5467.69" width="315.01" height="14.78"/>
   <rect class="fil3" x="4535.17" y="5486.16" width="315.01" height="14.78"/>
   <rect class="fil3" x="4535.34" y="5504.63" width="315.01" height="14.78"/>
   <rect class="fil3" x="4535.52" y="5523.1" width="315.01" height="14.78"/>
   <rect class="fil3" x="4535.69" y="5541.57" width="315.01" height="14.78"/>
   <rect class="fil3" x="4535.86" y="5560.04" width="315.01" height="14.78"/>
   <rect class="fil3" x="4536.04" y="5578.5" width="315.01" height="14.78"/>
   <rect class="fil3" x="4536.21" y="5596.97" width="315.01" height="14.78"/>
   <rect class="fil3" x="4536.38" y="5615.44" width="315.01" height="14.78"/>
   <rect class="fil3" x="4536.56" y="5633.91" width="315.01" height="14.78"/>
   <rect class="fil3" x="4536.73" y="5652.38" width="315.01" height="14.78"/>
   <rect class="fil3" x="4536.9" y="5670.85" width="315.01" height="14.78"/>
   <rect class="fil3" x="4537.08" y="5689.32" width="315.01" height="14.78"/>
   <rect class="fil3" x="4537.25" y="5707.79" width="315.01" height="14.78"/>
   <rect class="fil3" x="4537.42" y="5726.26" width="315.01" height="14.78"/>
   <rect class="fil3" x="4537.6" y="5744.72" width="315.01" height="14.78"/>
   <rect class="fil3" x="4537.77" y="5763.19" width="315.01" height="14.78"/>
   <rect class="fil3" x="4537.94" y="5781.66" width="315.01" height="14.78"/>
   <rect class="fil3" x="4538.12" y="5800.13" width="315.01" height="14.78"/>
   <rect class="fil3" x="4538.29" y="5818.6" width="315.01" height="14.78"/>
   <rect class="fil3" x="4538.46" y="5837.07" width="315.01" height="14.78"/>
  </g>
  <path class="fil18" d="M3074.33 5125.73c-36.35,12.31 -31.22,59.46 0,65.44 30.76,-0.35 61.51,-0.7 92.27,-1.06 5.04,0.85 8.7,6.05 9.9,12.44l22.72 146.94c10.57,0.7 29.52,7.21 56.85,-32.72l-33.56 -165.72c-4.44,-21.02 -10.78,-26.28 -27.03,-26.39 -40.39,0.35 -80.77,0.7 -121.16,1.06z"/>
  <path class="fil18" d="M3266.2 5673.87c-6.53,-24.63 -25.25,-45.88 -31.77,-70.51 -51.65,19.44 -90.25,53.39 -88.54,112.94 1.55,84.27 52.04,106.26 113.7,115.05l469.72 0c35.11,-0.35 50.64,-66.14 1.87,-80.22 -167.76,2.81 -335.52,5.63 -503.28,8.44 -21.28,-6.07 -39.3,-48.03 -3.73,-79.17 14.94,-7.72 28.25,-7.26 42.02,-6.54z"/>
  <path class="fil19" d="M3248.12 5318.89l462.27 -2.11c48.46,1.76 52.19,25.69 44.74,59.11l-42.87 246.99c-9.11,28.25 -20.81,52.78 -52.19,57l-363.48 0c-25.48,0.17 -46.29,-8.09 -59.65,-42.22l-42.87 -261.76c-0.62,-34.3 21.59,-57.52 54.06,-57z"/>
  <ellipse class="fil20" cx="3340.7" cy="5803.91" rx="78.29" ry="92.88"/>
  <ellipse class="fil18" cx="3340.7" cy="5803.91" rx="43.59" ry="51.72"/>
  <ellipse class="fil20" cx="3579.99" cy="5799.68" rx="78.29" ry="92.88"/>
  <ellipse class="fil18" cx="3579.99" cy="5799.68" rx="43.59" ry="51.72"/>
  <rect class="fil21" x="3030.12" y="6198.7" width="652.4" height="614.31"/>
  <rect class="fil3" x="3070.19" y="6252.52" width="561.99" height="33.78"/>
  <rect class="fil3" x="3106.55" y="6756.7" width="85.16" height="56.3"/>
  <polygon class="fil22" points="5853.96,7121.11 6491.44,7137.99 6489.57,7925.4 5832.51,7907.45 "/>
  <polygon class="fil23" points="6475.57,7137.2 6583.68,7137.2 6565.04,7787.12 6469.98,7776.36 "/>
  <polygon class="fil24" points="6363.71,7561.23 6926.63,7586.56 6919.18,7717.44 6359.98,7692.11 "/>
  <polygon class="fil25" points="6400.98,7696.33 6391.66,8017.2 6880.03,8036.2 6889.35,7711.11 "/>
  <rect class="fil3" x="6609.75" y="7573.89" width="55.92" height="464.42"/>
  <path class="fil3" d="M6643.85 7579.9c24.87,-77.82 83.89,-193.59 158.08,-194.78 53.11,0.96 78.4,54.9 56.91,123.17 -27.4,58.96 -119.3,76.38 -214.98,71.61zm29.28 -25.52c18.33,-57.35 61.82,-142.67 116.5,-143.55 39.15,0.7 57.78,40.46 41.94,90.77 -20.19,43.45 -87.92,56.29 -158.44,52.78z"/>
  <path class="fil3" d="M6504.48 7374.14c78.02,17.34 110.11,99.4 147.99,203.43 -74.85,4.48 -150.36,13.64 -212.28,-73.97 -29.72,-64.73 0.45,-129.85 64.3,-129.46zm11.37 32.47c53.43,11.88 75.42,68.08 101.36,139.33 -51.27,3.07 -102.98,9.34 -145.39,-50.66 -20.35,-44.33 0.31,-88.93 44.04,-88.67z"/>
  <rect class="fil3" x="3099.54" y="6392.93" width="216.38" height="10.15"/>
  <rect class="fil3" x="3102.58" y="6710.3" width="216.38" height="10.15"/>
  <rect class="fil3" x="3099.66" y="6405.61" width="216.38" height="10.15"/>
  <rect class="fil3" x="3099.78" y="6418.3" width="216.38" height="10.15"/>
  <rect class="fil3" x="3099.9" y="6430.98" width="216.38" height="10.15"/>
  <rect class="fil3" x="3100.02" y="6443.67" width="216.38" height="10.15"/>
  <rect class="fil3" x="3100.13" y="6456.35" width="216.38" height="10.15"/>
  <rect class="fil3" x="3100.25" y="6469.04" width="216.38" height="10.15"/>
  <rect class="fil3" x="3100.37" y="6481.73" width="216.38" height="10.15"/>
  <rect class="fil3" x="3100.49" y="6494.41" width="216.38" height="10.15"/>
  <rect class="fil3" x="3100.61" y="6507.1" width="216.38" height="10.15"/>
  <rect class="fil3" x="3100.73" y="6519.78" width="216.38" height="10.15"/>
  <rect class="fil3" x="3100.85" y="6532.47" width="216.38" height="10.15"/>
  <rect class="fil3" x="3100.97" y="6545.16" width="216.38" height="10.15"/>
  <rect class="fil3" x="3101.09" y="6557.84" width="216.38" height="10.15"/>
  <rect class="fil3" x="3101.21" y="6570.53" width="216.38" height="10.15"/>
  <rect class="fil3" x="3101.32" y="6583.21" width="216.38" height="10.15"/>
  <rect class="fil3" x="3101.44" y="6595.9" width="216.38" height="10.15"/>
  <rect class="fil3" x="3101.56" y="6608.58" width="216.38" height="10.15"/>
  <rect class="fil3" x="3101.68" y="6621.27" width="216.38" height="10.15"/>
  <rect class="fil3" x="3101.8" y="6633.96" width="216.38" height="10.15"/>
  <rect class="fil3" x="3101.92" y="6646.64" width="216.38" height="10.15"/>
  <rect class="fil3" x="3102.04" y="6659.33" width="216.38" height="10.15"/>
  <rect class="fil3" x="3102.16" y="6672.01" width="216.38" height="10.15"/>
  <rect class="fil3" x="3102.28" y="6684.7" width="216.38" height="10.15"/>
  <rect class="fil3" x="3102.4" y="6697.39" width="216.38" height="10.15"/>
  <rect class="fil3" x="3401.27" y="6486.91" width="212.5" height="9.97"/>
  <rect class="fil3" x="3401.38" y="6499.37" width="212.5" height="9.97"/>
  <rect class="fil3" x="3401.5" y="6511.83" width="212.5" height="9.97"/>
  <rect class="fil3" x="3401.62" y="6524.29" width="212.5" height="9.97"/>
  <rect class="fil3" x="3401.73" y="6536.75" width="212.5" height="9.97"/>
  <rect class="fil3" x="3401.85" y="6549.21" width="212.5" height="9.97"/>
  <rect class="fil3" x="3401.97" y="6561.66" width="212.5" height="9.97"/>
  <rect class="fil3" x="3402.09" y="6574.12" width="212.5" height="9.97"/>
  <rect class="fil3" x="3402.2" y="6586.58" width="212.5" height="9.97"/>
  <rect class="fil3" x="3402.32" y="6599.04" width="212.5" height="9.97"/>
  <rect class="fil3" x="3402.44" y="6611.5" width="212.5" height="9.97"/>
  <rect class="fil3" x="3402.55" y="6623.96" width="212.5" height="9.97"/>
  <rect class="fil3" x="3402.67" y="6636.42" width="212.5" height="9.97"/>
  <rect class="fil3" x="3402.79" y="6648.87" width="212.5" height="9.97"/>
  <rect class="fil3" x="3402.9" y="6661.33" width="212.5" height="9.97"/>
  <rect class="fil3" x="3403.02" y="6673.79" width="212.5" height="9.97"/>
  <rect class="fil3" x="3403.14" y="6686.25" width="212.5" height="9.97"/>
  <rect class="fil3" x="3403.25" y="6698.71" width="212.5" height="9.97"/>
  <rect class="fil3" x="3219.32" y="6755.84" width="85.16" height="57.16"/>
  <path class="fil8 str6" d="M6370.84 7268.33c17.09,-334.94 47.03,-476 -193.12,-516.46 -258.78,26.39 -206.65,261.24 -219.02,506.64"/>
  <path class="fil8 str7" d="M6480.19 7134.99c18.95,-267.39 -3.51,-348.24 -198.92,-382.37 -156.26,13.72 -224.53,119.63 -216.39,371.37"/>
  <path class="fil8 str7" d="M6370.84 7268.33c17.09,-334.94 47.03,-476 -193.12,-516.46 -258.78,26.39 -206.65,261.24 -219.02,506.64"/>
  <polygon class="fil3" points="2155.21,7341.88 2479.54,7177.22 2710.68,7362.99 2945.54,7185.67 3262.42,7371.44 3258.69,8021.63 2938.08,7823.19 2718.13,8000.52 2472.09,7823.19 2166.39,7992.07 "/>
  <line class="fil8 str8" x1="2214.86" y1="7320.77" x2="2222.31" y2= "7962.52" />
  <line class="fil8 str8" x1="2341.61" y1="7257.44" x2="2339.74" y2= "7899.19" />
  <line class="fil8 str8" x1="2718.13" y1="7987.85" x2="2706.95" y2= "7413.66" />
  <line class="fil8 str8" x1="2953" y1="7191.99" x2="2953" y2= "7835.85" />
  <polygon class="fil12" points="2479.54,7177.22 2472.09,7823.19 2718.13,8000.52 2711.62,7348.2 "/>
  <line class="fil8 str8" x1="2475.81" y1="7185.66" x2="2481.41" y2= "7827.41" />
  <polygon class="fil12" points="2945.54,7185.67 3262.42,7371.44 3258.69,8021.63 2938.08,7823.19 "/>
  <line class="fil8 str8" x1="3083.48" y1="7269.57" x2="3083.48" y2= "7905.52" />
  <line class="fil8 str8" x1="3213.96" y1="7978.61" x2="3210.39" y2= "7343.98" />
  <polyline class="fil8 str8" points="2162.67,7723.98 2488.86,7557.2 2710.68,7730.31 2954.86,7552.98 3256.83,7721.87 "/>
  <polyline class="fil8 str8" points="3262.42,7884.41 2949.27,7707.09 2712.54,7884.41 2477.68,7713.42 2162.67,7890.75 "/>
  <polyline class="fil8 str8" points="2162.67,7405.21 2476.19,7228.98 2706.95,7413.66 2953,7227.89 3251.23,7396.77 "/>
  <polyline class="fil8 str8" points="2162.67,7565.65 2479.54,7400.99 2714.41,7569.87 2949.27,7388.32 3254.96,7565.65 "/>
  <ellipse class="fil1" cx="2638.94" cy="7436.32" rx="29.12" ry="29.29"/>
  <path class="fil24" d="M2639.86 7435.8c-47.22,-64.03 -105.63,-184.01 -113.7,-236.43 -3.11,-60.52 -3.89,-170.11 73.63,-208.46 21.44,-9.32 58.72,-13.37 90.4,-2.64 60.27,28.5 75.8,135.11 63.38,221.66 -23.92,89.01 -66.91,157.65 -113.7,225.88z"/>
  <ellipse class="fil3" cx="2645.09" cy="7100.14" rx="51.17" ry="59.64"/>
  <path class="fil26" d="M3529.47 8067.81l1357.06 -19.13 -152.04 -255.09c-81.65,-142.43 -235,-152.3 -363.2,-159.44l-8.44 -89.28 -278.73 6.38 -16.9 70.15c-180.19,29.76 -264.64,56.33 -380.08,213.63l-157.66 232.78z"/>
  <path class="fil3" d="M2794.76 6907.7l3030.84 -8.44c-3.11,110.48 -15.53,258.95 -205.04,261.76 -879.8,1.41 -1759.6,2.81 -2639.4,4.22 -118.05,7.04 -169,-59.81 -186.4,-257.54z"/>
  <path class="fil27" d="M3925.08 7031.52c5.63,250.3 85.87,310.9 202.71,334.81l-2.81 184.94 185.82 3.19c4.69,-61.64 9.39,-123.3 14.08,-184.94 158.6,-11.69 202.16,-174.56 203.1,-396.7 -200.96,19.57 -401.93,39.13 -602.9,58.7z"/>
  <path class="fil28 str5" d="M3832.97 6053.52c51.15,9.56 99.48,41.45 140.78,95.65 152.04,-6.38 304.07,-12.76 456.11,-19.13 63.81,30.29 92.44,71.75 111.21,167.41l1.41 578.72c-12.2,144.55 -55.37,279.54 -146.41,376.26 -41.06,27.1 -84.95,22.32 -121.08,0 -14.78,-73.87 -89.39,-85.56 -109.8,3.19 -34.72,23.92 -73.67,25.51 -112.61,0 -80.72,-76.53 -140.49,-196.87 -157.67,-363.5l11.24 -663.28c-8.91,-72.78 -30.48,-120.07 -73.17,-175.31z"/>
  <path class="fil29" d="M3289.65 5427.87c6.37,-30.61 46.76,-49.61 59.65,0l0 153.05c-6.84,29.03 -47.22,38 -59.65,0l0 -153.05z"/>
  <path class="fil29" d="M3393.57 5425.76c6.37,-30.61 46.76,-49.61 59.65,0l0 153.05c-6.83,29.03 -47.22,38 -59.65,0l0 -153.05z"/>
  <path class="fil29" d="M3502.15 5424.17c6.37,-30.61 46.76,-49.61 59.65,0l0 153.05c-6.83,29.03 -47.22,38 -59.65,0l0 -153.05z"/>
  <path class="fil29" d="M3607.94 5420.46c6.37,-30.61 46.75,-49.61 59.65,0l0 153.05c-6.83,29.03 -47.22,38 -59.65,0l0 -153.05z"/>
  <rect class="fil30" x="5350.76" y="6331.36" width="283.32" height="312.43"/>
  <ellipse class="fil3" cx="5491.72" cy="6462.24" rx="49.4" ry="62.27"/>
  <path class="fil3" d="M5407.61 6637.46c59.34,-0.35 118.67,-0.7 178.01,-1.06 -15.53,-29.56 -28.74,-59.64 -57.78,-79.17 -18.8,-9.67 -43.18,-9.85 -66.17,1.06 -21.61,13.17 -42.23,42.6 -54.06,79.17z"/>
  <ellipse class="fil31" cx="1804.04" cy="4120.58" rx="55.92" ry="68.61"/>
  <ellipse class="fil31" cx="1384.65" cy="4845.71" rx="55.92" ry="68.61"/>
  <ellipse class="fil31" cx="3942.04" cy="4022.18" rx="55.92" ry="68.61"/>
  <ellipse class="fil31" cx="4752.87" cy="4018.21" rx="55.92" ry="68.61"/>
  <ellipse class="fil31" cx="6702.6" cy="3885.23" rx="55.92" ry="68.61"/>
  <ellipse class="fil31" cx="7112.68" cy="4600.86" rx="55.92" ry="68.61"/>
  <ellipse class="fil31" cx="7166.73" cy="6241.12" rx="55.92" ry="68.61"/>
  <ellipse class="fil31" cx="6544.15" cy="6743.55" rx="55.92" ry="68.61"/>
  <ellipse class="fil31" cx="1287.71" cy="6325.57" rx="55.92" ry="68.61"/>
  <ellipse class="fil31" cx="1914.01" cy="6821.66" rx="55.92" ry="68.61"/>
  <rect class="fil31" x="1365.7" y="4700.12" width="29.09" height="85.18"/>
  <rect class="fil31" x="1365.7" y="4476.56" width="29.09" height="138.5"/>
  <path class="fil31" d="M1379.41 4232.55c6.11,7.33 13.33,15.94 19.44,23.28 -6.66,14.24 -2.7,85.47 -4.05,128.21l-29.09 0c4.94,-50.07 -8.57,-136.24 13.7,-151.49z"/>
  <path class="fil31" d="M1430.22 4162.46c6.48,6.91 16.31,9.43 22.8,16.34 8.66,-21.16 65.77,-28.33 103.5,-29.85l0 -32.94c-44.21,5.59 -117.87,7.93 -126.3,46.46z"/>
  <rect class="fil31" transform="matrix(1.80368E-14 -0.771283 1.04824 3.14413E-14 1624.54 4142.01)" width="42.71" height="116.67"/>
  <rect class="fil31" transform="matrix(1.80368E-14 -0.771283 1.04824 3.14413E-14 4167.77 4033.09)" width="42.71" height="116.67"/>
  <rect class="fil31" transform="matrix(1.80368E-14 -0.771283 1.04824 3.14413E-14 3966.45 4030.55)" width="42.71" height="116.67"/>
  <rect class="fil31" transform="matrix(1.80368E-14 -0.771283 1.04824 3.14413E-14 4371.76 4033.09)" width="42.71" height="116.67"/>
  <rect class="fil31" transform="matrix(1.80368E-14 -0.771283 1.04824 3.14413E-14 4575.76 4033.09)" width="42.71" height="116.67"/>
  <rect class="fil31" transform="matrix(1.80368E-14 -0.771283 1.04824 3.14413E-14 6740.07 3907.7)" width="42.71" height="116.67"/>
  <rect class="fil31" x="7098.68" y="4467.95" width="29.09" height="138.5"/>
  <rect class="fil31" x="7106.5" y="4237.42" width="29.09" height="138.5"/>
  <path class="fil31" d="M7121.7 3995.34c-6.11,7.33 -13.33,15.94 -19.44,23.28 6.66,14.24 2.7,85.47 4.05,128.21l29.09 0c-4.94,-50.07 8.57,-136.24 -13.7,-151.49z"/>
  <path class="fil31" d="M7062.44 3921.68c-6.48,6.91 -16.32,9.43 -22.8,16.34 -8.66,-21.16 -65.77,-28.33 -103.5,-29.85l0 -32.94c44.21,5.59 117.87,7.93 126.3,46.46z"/>
  <rect class="fil31" x="7153.48" y="6296.41" width="29.09" height="138.5"/>
  <path class="fil31" d="M7088.41 6736.74c-6.48,-6.91 -14.07,-15.1 -20.55,-22.01 -12.57,7.54 -75.47,3.06 -113.21,4.59l0 32.94c44.21,-5.59 120.3,9.71 133.76,-15.52z"/>
  <path class="fil31" d="M7150.59 6671.94c-6.54,-6.84 -9.42,-17.79 -15.96,-24.64 18.05,-11.23 20.46,-76.25 19.22,-118.99l29.02 -2.25c-1.9,50.34 1.08,133.72 -32.28,145.88z"/>
  <rect class="fil31" transform="matrix(1.80368E-14 -0.771283 1.04824 3.14413E-14 6745.65 6755.03)" width="42.71" height="116.67"/>
  <rect class="fil31" transform="matrix(1.80368E-14 -0.771283 1.04824 3.14413E-14 6552.4 6755.03)" width="42.71" height="116.67"/>
  <rect class="fil31" transform="matrix(1.80368E-14 -0.771283 1.04824 3.14413E-14 1796.1 6834.83)" width="42.71" height="116.67"/>
  <rect class="fil31" transform="matrix(1.80368E-14 -0.771283 1.04824 3.14413E-14 1588.74 6834.83)" width="42.71" height="116.67"/>
  <path class="fil31" d="M1380.32 6802.89c5.65,-7.79 15.13,-11.7 20.78,-19.49 10.96,19.74 68.41,18.64 106.02,14.73l3.7 32.67c-44.48,0.81 -117.81,9.09 -130.49,-27.91z"/>
  <path class="fil31" d="M1317.92 6757.48c4.11,-8.94 8.99,-19.45 13.09,-28.4 -9.84,-11.64 -32.13,-77.6 -34.78,-122.1l-27.98 8.98c5.63,53.61 24.56,133.72 49.67,141.51z"/>
  <rect class="fil31" x="1260.14" y="6374.17" width="29.09" height="138.5"/>
 </g>
</svg>
