<?xml version="1.0" encoding="UTF-8"?>
<!DOCTYPE svg PUBLIC "-//W3C//DTD SVG 1.1//EN" "http://www.w3.org/Graphics/SVG/1.1/DTD/svg11.dtd">
<!-- Creator: CorelDRAW X7 -->
<svg xmlns="http://www.w3.org/2000/svg" xml:space="preserve" width="8.5in" height="11in" version="1.1" style="shape-rendering:geometricPrecision; text-rendering:geometricPrecision; image-rendering:optimizeQuality; fill-rule:evenodd; clip-rule:evenodd"
viewBox="0 0 8500 11000"
 xmlns:xlink="http://www.w3.org/1999/xlink">
 <defs>
  <style type="text/css">
   <![CDATA[
    .str4 {stroke:#373435;stroke-width:55.5551}
    .str5 {stroke:#373435;stroke-width:111.11}
    .str0 {stroke:#FEFEFE;stroke-width:20.8307}
    .str7 {stroke:#F7B304;stroke-width:6.94094}
    .str6 {stroke:#E6E7E8;stroke-width:6.94488}
    .str1 {stroke:#373435;stroke-width:6.94488}
    .str2 {stroke:#F7B304;stroke-width:6.94488}
    .str3 {stroke:#373435;stroke-width:3}
    .str8 {stroke:#89AA1C;stroke-width:3}
    .str9 {stroke:#F7B304;stroke-width:3}
    .fil21 {fill:none}
    .fil32 {fill:#FEFEFE}
    .fil9 {fill:#E6E7E8}
    .fil28 {fill:#D2D3D5}
    .fil13 {fill:#BDBFC1}
    .fil14 {fill:#A9ABAE}
    .fil19 {fill:#96989A}
    .fil18 {fill:#848688}
    .fil29 {fill:#727376}
    .fil15 {fill:#606062}
    .fil27 {fill:#4B4B4D}
    .fil8 {fill:#373435}
    .fil33 {fill:#FFF212}
    .fil25 {fill:#718FC8}
    .fil26 {fill:#52658C}
    .fil22 {fill:#00AFEF}
    .fil51 {fill:#115A7D}
    .fil40 {fill:#154C76}
    .fil16 {fill:#208078}
    .fil58 {fill:#23333C}
    .fil46 {fill:#236E78}
    .fil50 {fill:#247DAA}
    .fil56 {fill:#251D1B}
    .fil7 {fill:#29948C}
    .fil5 {fill:#33A8A0}
    .fil42 {fill:#3B0A04}
    .fil10 {fill:#433491}
    .fil48 {fill:#48A6B2}
    .fil11 {fill:#633D3D}
    .fil35 {fill:#89AA1C}
    .fil12 {fill:#8C5252}
    .fil17 {fill:#8C8CDE}
    .fil44 {fill:#A7DEE4}
    .fil47 {fill:#AADDEB}
    .fil34 {fill:#ABCB2B}
    .fil54 {fill:#AEC401}
    .fil0 {fill:#C1C1F4}
    .fil30 {fill:#E5F2FF}
    .fil24 {fill:#E7BCBD}
    .fil3 {fill:#E7E7F7}
    .fil20 {fill:#E7EFF7}
    .fil23 {fill:#EDBDC8}
    .fil57 {fill:#EE942C}
    .fil6 {fill:#EFAD52}
    .fil39 {fill:#EFEFEF}
    .fil2 {fill:#EFF7FF}
    .fil55 {fill:#F4E0AF}
    .fil59 {fill:#F76A2F}
    .fil41 {fill:#F7B304}
    .fil1 {fill:#FAD3D4}
    .fil4 {fill:#FDCF79}
    .fil52 {fill:#FF2F2F}
    .fil53 {fill:#FF5151}
    .fil31 {fill:#FF611C}
    .fil45 {fill:#FF7138}
    .fil49 {fill:#FFB833}
    .fil37 {fill:#FFC310}
    .fil36 {fill:#FFDE00}
    .fil43 {fill:white}
    .fil38 {fill:#F7B304;fill-rule:nonzero}
   ]]>
  </style>
 </defs>
 <g id="Layer_x0020_1">
  <metadata id="CorelCorpID_0Corel-Layer"/>
  <rect class="fil0" x="16" y="2392" width="8462" height="6195"/>
  <polygon class="fil1" points="2352,2938 6183,2932 6124,5477 2299,5270 "/>
  <polygon class="fil2" points="2938,3392 3285,3328 3328,3584 3260,3777 3013,3820 "/>
  <polygon class="fil3" points="3718,3193 4112,3126 4178,3499 4083,3642 3809,3686 "/>
  <polygon class="fil4" points="4626,3116 5069,3122 4999,3565 4877,3688 4553,3630 "/>
  <polygon class="fil5" points="5372,3200 5666,3156 5734,3604 5374,3654 5325,3316 "/>
  <polygon class="fil3" points="3328,3584 3205,3637 3259,3780 "/>
  <polygon class="fil2" points="4059,3531 4176,3502 4090,3631 "/>
  <polygon class="fil6" points="4871,3560 4999,3565 4883,3683 "/>
  <polygon class="fil7" points="5372,3200 5380,3317 5325,3316 "/>
  <polygon class="fil8" points="3063,4380 5032,4380 5086,4432 5084,5576 3025,5579 3027,4418 "/>
  <polygon class="fil9" points="3023,5790 3025,5579 5084,5576 5085,5769 5034,5824 3072,5824 "/>
  <rect class="fil10" x="3104" y="4460" width="1896" height="1050"/>
  <polygon class="fil11" points="6110,5898 6922,6634 1274,6621 1816,5901 "/>
  <polygon class="fil12" points="6922,6634 6920,6721 1276,6728 1274,6621 "/>
  <path class="fil13" d="M3803 5830l505 -4c-1,163 18,236 112,277l0 21 -721 4 0 -22c71,-6 111,-148 104,-276z"/>
  <g id="_570958592">
   <polygon class="fil12" points="5978,7973 6084,8005 6084,6722 5972,6722 "/>
   <polygon class="fil11" points="6139,7967 6084,8005 6084,6722 6173,6722 "/>
   <path class="fil14" d="M6159 7995c229,89 454,70 661,-10l-88 603 -485 0 -88 -593z"/>
   <path class="fil15" d="M6160 7996c206,94 460,65 658,-10 6,-2 4,-11 -2,-13 -206,-82 -449,-107 -650,6 -8,4 -14,13 -6,17z"/>
   <path class="fil7" d="M6572 8033l247 -410c111,-142 122,-344 -10,-275l-148 139c80,-140 160,-280 241,-420 63,-159 108,-304 -8,-290l-314 348 238 -358c28,-250 -63,-514 -224,-615 -102,-51 -84,22 -73,85l75 310 -45 -75c-27,-26 -49,-64 -119,47l-93 678c-25,115 -50,231 -76,346 -12,28 -18,67 -18,105l99 383 228 2z"/>
   <path class="fil5" d="M6122 7124c-80,-94 -210,-80 -185,78l370 568 245 -84 -14 -972 -9 -184c-60,-108 -113,-87 -169,-16 -38,51 -27,135 -48,128 -25,-139 -16,-273 -129,-392 -33,-39 -161,-86 -180,87 7,159 82,273 137,396 -33,-18 -67,-36 -100,-54 -89,-24 -122,56 -85,134l181 298c-4,4 -9,9 -14,13z"/>
   <path class="fil5" d="M6305 8031l333 3 172 -255c26,-109 -56,-153 -175,-103l182 -298c50,-193 -22,-228 -149,-193 77,-127 154,-255 231,-382 33,-134 -100,-138 -202,-58 41,-150 202,-379 73,-452 -245,-94 -207,338 -310,507 -69,-75 -229,-113 -212,103l93 323c-48,-8 -91,-15 -144,-25 -59,-22 -106,34 -84,91l226 408 -144 -69c-69,-22 -128,44 -87,128l197 272z"/>
   <path class="fil16" d="M6465 8030l-133 -126 132 100 6 -408 -171 -225 173 207 40 -377 -115 -204c0,0 130,163 115,171 -14,8 179,-780 179,-780l-138 644 113 -83 -116 108 -55 426 141 -101 -143 129 -15 412 148 -92 -144 112 -1 88 -16 -1z"/>
  </g>
  <path class="fil5" d="M1034 7006c204,162 416,276 644,342 -122,-235 -362,-809 -106,-811 -183,-155 -392,-252 -608,-261 -63,72 34,485 70,730z"/>
  <path class="fil7" d="M1572 6537c-41,-5 -131,27 -112,185 21,209 122,452 218,626 102,22 103,-75 90,-119 -78,-184 -160,-404 -196,-692z"/>
  <path class="fil5" d="M1529 7772c-102,138 9,239 116,268 350,39 836,81 1194,-136 -398,5 -1207,179 -1247,-192 -21,20 -42,40 -63,60z"/>
  <path class="fil17" d="M1314 7195c33,16 63,34 96,50 72,369 258,578 445,804 -37,-4 -75,-9 -112,-13 -186,-222 -362,-477 -429,-841z"/>
  <polygon class="fil11" points="1735,8050 1840,8059 1844,8535 1734,8567 "/>
  <polygon class="fil11" points="2160,8070 2305,8063 2305,8588 2156,8588 "/>
  <polygon class="fil12" points="1671,8043 1735,8050 1734,8567 1673,8516 "/>
  <path class="fil18" d="M3703 7816c141,-100 239,26 318,150l87 622 -192 0 -213 -772z"/>
  <path class="fil18" d="M3639 7459l-7 -77 -190 63 -888 -57 -84 -93c412,-74 823,-147 1235,-220 68,-7 167,-6 205,126l73 294 -344 -36z"/>
  <path class="fil19" d="M1626 7750c253,81 477,58 700,-68 114,-64 276,-244 228,-294 470,30 940,61 1410,91 164,39 168,54 245,316l238 793 -200 0 -382 -773c-746,-22 -2130,370 -2239,-65z"/>
  <path class="fil9" d="M3619 6501c42,57 124,87 194,75 116,-37 228,-105 161,-172 -37,-39 -114,-44 -189,-34l-166 131z"/>
  <path class="fil1" d="M2048 6303c94,64 183,136 276,199 -47,20 -119,66 -236,-3l-40 -196z"/>
  <path class="fil1" d="M2509 6222c250,-21 521,-50 770,-71 59,3 96,-21 151,-22 65,0 132,22 176,68 10,18 4,38 -17,43 -28,-20 -58,-26 -96,-20 -16,40 24,38 39,47 8,13 6,30 -13,30 -39,-4 -77,-14 -113,-37 -80,-5 -415,89 -619,132l-278 -170z"/>
  <polygon class="fil9" points="2488,6024 3722,6119 3429,6439 2180,6308 "/>
  <polygon class="fil13" points="3722,6119 3727,6149 3438,6470 2179,6329 2180,6308 3429,6439 "/>
  <polygon class="fil20 str0" points="2488,6068 2539,6071 3655,6148 3421,6396 2276,6270 "/>
  <line class="fil21 str0" x1="3359" y1="6389" x2="3592" y2= "6143" />
  <line class="fil21 str0" x1="3279" y1="6380" x2="3498" y2= "6137" />
  <line class="fil21 str0" x1="3191" y1="6371" x2="3407" y2= "6131" />
  <line class="fil21 str0" x1="2344" y1="6280" x2="2540" y2= "6068" />
  <line class="fil21 str0" x1="2415" y1="6292" x2="2611" y2= "6081" />
  <line class="fil21 str0" x1="2494" y1="6293" x2="2691" y2= "6082" />
  <line class="fil21 str0" x1="2570" y1="6298" x2="2767" y2= "6087" />
  <line class="fil21 str0" x1="2640" y1="6307" x2="2836" y2= "6095" />
  <line class="fil21 str0" x1="2724" y1="6319" x2="2934" y2= "6094" />
  <line class="fil21 str0" x1="2887" y1="6336" x2="3064" y2= "6109" />
  <line class="fil21 str0" x1="2815" y1="6333" x2="2992" y2= "6106" />
  <line class="fil21 str0" x1="3111" y1="6362" x2="3335" y2= "6126" />
  <line class="fil21 str0" x1="2961" y1="6343" x2="3138" y2= "6116" />
  <line class="fil21 str0" x1="3037" y1="6354" x2="3221" y2= "6119" />
  <line class="fil21 str0" x1="2449" y1="6102" x2="3620" y2= "6185" />
  <line class="fil21 str0" x1="2412" y1="6139" x2="3575" y2= "6242" />
  <line class="fil21 str0" x1="2373" y1="6184" x2="3525" y2= "6286" />
  <line class="fil21 str0" x1="2317" y1="6229" x2="3467" y2= "6347" />
  <path class="fil1" d="M2524 6261l-163 246 365 229c100,71 146,77 224,66l642 -301 266 16c42,3 51,-11 15,-33 14,-12 35,-5 53,-8 21,18 32,-5 21,-19l-58 -28 68 9c17,6 28,-1 8,-21l-91 -45 89 9c12,2 24,-4 8,-24 -78,-39 -149,-48 -227,-47l-813 197 -407 -246z"/>
  <path class="fil22" d="M1257 5458c-402,-11 -295,603 -264,818 235,55 376,148 562,262 31,243 115,467 192,682 39,117 -43,146 -95,126l-248 -104c51,196 116,372 218,504 178,64 381,74 571,-3 174,-50 461,-286 344,-375 -216,-265 -409,-614 -489,-1066l307 223 195 -297c-217,-126 -434,-252 -651,-378 -62,-160 -378,-339 -642,-392z"/>
  <path class="fil1" d="M2444 6214l319 191c199,-30 321,-197 516,-209 49,29 61,-14 143,38 18,0 20,-13 8,-30 -15,-16 -40,-2 -40,-31 12,-33 64,-23 93,-7 11,10 29,11 29,-5 -26,-50 -75,-76 -127,-93 -53,0 -111,10 -169,24l-772 122z"/>
  <g id="_570951872">
   <path class="fil6" d="M1257 5458l461 197c-14,-13 -30,-31 -44,-45 -16,-40 -47,-65 -78,-88l-209 -101c-17,-9 -26,-9 -62,3l-68 34z"/>
   <path class="fil1" d="M1373 5410l250 123c6,-62 26,-137 60,-193l223 41c24,-49 49,-89 63,-198l17 -74c71,-28 49,-38 24,-156 2,-148 41,-300 -39,-429l-287 -130 -265 523c5,106 10,213 15,320 -4,59 -23,120 -61,173z"/>
   <path class="fil8 str1" d="M1592 5087c-35,72 -57,185 -160,142 -54,-46 -110,-88 -184,-86 -74,-37 -86,-106 -76,-190 4,-60 -28,-88 -65,-120 -28,-29 3,-111 61,-137 49,-51 -32,-98 -21,-178 18,-79 89,-102 125,-84 53,10 59,-60 51,-128 -2,-41 50,-109 128,-74 45,43 90,21 135,-5 35,-34 97,-108 139,-52 19,54 62,76 109,45 50,-42 104,-51 153,-4 17,20 12,49 -6,72 -24,27 -19,54 13,55 60,-5 68,38 46,81 -23,19 -13,39 3,50 21,23 4,54 -23,47 -68,-7 -149,-34 -208,45 -53,94 -22,144 -26,213 -65,150 -36,284 -37,412 17,45 46,51 75,0 44,-55 97,-60 153,-58 8,15 6,30 0,45 -51,9 -106,9 -130,76 -11,46 11,70 35,90 17,17 14,-14 42,-14 -19,65 -51,132 -139,122 -73,-12 -102,-59 -100,-154 13,-136 26,-272 40,-407 -48,-51 -116,-63 -152,19 -23,80 -17,135 19,177z"/>
   <path class="fil23" d="M1594 5089c33,27 64,48 97,49l-10 211c-20,-76 -15,-166 -94,-212l7 -48z"/>
   <path class="fil24" d="M1647 4904c57,19 47,53 45,86 -11,-3 -32,1 -49,9 -26,13 -41,36 12,64 -44,-46 -39,-52 52,-69 4,-54 -10,-87 -60,-90z"/>
  </g>
  <polygon class="fil25" points="5055,6023 4909,6204 5875,6199 5729,6025 "/>
  <path class="fil26" d="M4915 6197c-18,13 -22,37 0,52l950 -5c19,-17 18,-42 0,-54 -316,2 -633,5 -950,7z"/>
  <polygon class="fil8" points="5178,6044 5092,6187 5789,6186 5686,6041 "/>
  <path class="fil26" d="M5014 6113c3,40 101,34 93,-1 -5,-35 -83,-33 -93,1z"/>
  <path class="fil8" d="M5806 5942c25,27 84,36 121,-1 0,37 0,74 0,111 -34,27 -89,36 -122,1 0,-37 0,-74 1,-111z"/>
  <path class="fil14" d="M5806 5942c31,32 89,29 121,-1 -23,-23 -90,-30 -121,1z"/>
  <path class="fil27" d="M5844 5963c13,3 28,4 41,0l2 -305 -11 -7 -20 -1 -11 9c0,0 0,304 -1,304z"/>
  <path class="fil8" d="M5855 5638l21 -1 0 12c0,0 -21,-2 -21,0 0,1 0,-11 0,-11z"/>
  <path class="fil28" d="M5845 5805l41 0 1 -151 -11 -4 -20 0 -11 5c0,0 1,150 0,150z"/>
  <polygon class="fil29" points="5845,5693 5886,5693 5886,5705 5845,5705 "/>
  <path class="fil6" d="M2433 6160c40,19 77,48 117,68l-195 297 -115 -84c67,-80 155,-186 193,-281z"/>
  <rect class="fil30" x="3104" y="4460" width="1896" height="1050"/>
  <path class="fil8" d="M3717 5274l714 -2c0,-151 0,-293 0,-444 -1,-18 -17,-27 -29,-27 -224,0 -433,0 -657,0 -11,1 -26,16 -28,29 0,0 1,444 0,444z"/>
  <path class="fil30" d="M3742 5251l671 0c0,-141 0,-283 0,-424 0,-8 -3,-11 -10,-11l-649 0c-6,0 -11,3 -12,12l0 423z"/>
  <path class="fil31" d="M3695 4612c63,0 125,-1 187,-1 8,1 13,7 13,14l1 118c0,7 -5,14 -13,14l-190 0c-9,-1 -15,-5 -15,-15 0,-40 1,-79 1,-118 0,-5 6,-12 16,-12z"/>
  <rect class="fil8" x="3679" y="4641" width="216.778" height="31.9568"/>
  <rect class="fil32" x="3685" y="4688" width="82.8632" height="13.819"/>
  <rect class="fil32" x="3800" y="4687" width="87.27" height="13.819"/>
  <rect class="fil33" x="3832" y="4707" width="36.7998" height="13.819"/>
  <path class="fil34" d="M3230 5007c0,-21 0,-41 0,-61 0,-5 3,-5 6,-2 37,23 75,11 113,-2 40,-13 94,-29 126,-2l5 7 0 117c0,3 -3,4 -8,3 -43,-24 -105,-4 -160,16 -27,9 -54,-2 -82,-3l0 -73z"/>
  <path class="fil35" d="M3247 4983l0 12 4 68 48 11c22,-1 45,-9 66,-18 26,-9 48,-13 74,-13 5,-6 12,-14 23,-17l0 -64c-10,-6 -18,-16 -24,-27 -30,-2 -59,8 -88,18 -27,7 -50,16 -81,13 -5,9 -12,14 -22,17z"/>
  <circle class="fil36" cx="3259" cy="5043" r="47"/>
  <path class="fil34" d="M3334 4976c13,-16 32,-23 49,-11 11,11 17,42 2,63 -10,15 -22,25 -39,27 -12,0 -22,-8 -26,-29 -5,-17 3,-36 14,-50z"/>
  <rect class="fil37" x="4283" y="4588" width="140" height="121"/>
  <path class="fil38" d="M4422 4590l-136 119 136 0 0 -119zm-68 59m0 60m68 -60"/>
  <path class="fil39" d="M4287 4714l137 0 0 -101 42 1c7,1 13,3 18,8 13,16 26,32 40,49 4,5 6,10 7,16l0 19 -2 2 0 7c4,-1 7,0 9,3l0 16c1,0 2,0 3,0 0,1 0,2 -1,3l-2 0c0,3 -1,5 -5,5 -79,0 -159,0 -238,0 -3,0 -7,0 -8,-5l0 -23z"/>
  <path class="fil40" d="M4456 4680l44 0c3,0 5,-2 6,-6l0 -6c-1,-4 -3,-7 -5,-11l-21 -25c-2,-2 -3,-3 -7,-4l-19 0c-4,0 -6,3 -6,7 0,13 0,26 0,39 0,5 4,5 8,6z"/>
  <circle class="fil41 str2" cx="4347" cy="4754" r="26"/>
  <circle class="fil42 str3" cx="4347" cy="4754" r="20"/>
  <ellipse class="fil41 str3" cx="4347" cy="4754" rx="10" ry="11"/>
  <circle class="fil41 str2" cx="4483" cy="4753" r="26"/>
  <circle class="fil42 str3" cx="4483" cy="4753" r="20"/>
  <ellipse class="fil41 str3" cx="4483" cy="4753" rx="10" ry="11"/>
  <path class="fil31" d="M4608 4922c87,1 175,1 263,1 18,0 18,10 17,21 -2,9 -5,18 -7,27 -5,8 -6,16 -24,15 -78,0 -157,0 -235,0 -9,0 -18,-5 -20,-13l-8 -30c0,-8 3,-18 14,-21z"/>
  <path class="fil43" d="M4618 4987l25 88c4,10 9,13 18,15l155 -1c8,0 16,-2 21,-11l28 -91 -247 0z"/>
  <polygon class="fil44" points="4630,4986 4653,4986 4662,5028 4643,5029 "/>
  <polygon class="fil44" points="4660,4986 4686,4986 4693,5028 4670,5028 "/>
  <polygon class="fil44" points="4695,4986 4698,5028 4723,5028 4723,4986 "/>
  <path class="fil44" d="M4647 5041l19 0 7 36c-2,0 -5,0 -8,0 -10,-3 -15,-20 -18,-36z"/>
  <polygon class="fil44" points="4672,5040 4695,5040 4700,5077 4682,5078 "/>
  <polygon class="fil44" points="4701,5041 4706,5078 4725,5078 4725,5041 "/>
  <polygon class="fil44" points="4830,4987 4820,5029 4840,5028 4852,4986 "/>
  <path class="fil44" d="M4817 5040c6,0 13,0 19,0 -3,15 -9,36 -16,37l-11 1 8 -38z"/>
  <polygon class="fil44" points="4788,5041 4810,5041 4802,5077 4783,5078 "/>
  <polygon class="fil44" points="4795,4986 4823,4986 4813,5028 4790,5028 "/>
  <path class="fil44" d="M4760 4986l30 0 -6 42 -24 0c0,0 0,-42 0,-42z"/>
  <polygon class="fil44" points="4759,5041 4758,5078 4777,5077 4783,5040 "/>
  <polygon class="fil44" points="4730,5041 4752,5041 4752,5078 4730,5078 "/>
  <polygon class="fil44" points="4730,5029 4755,5029 4755,4986 4729,4986 "/>
  <path class="fil8 str1" d="M4725 4859c10,-14 16,-2 11,7 -11,27 -23,53 -35,80 -5,8 -15,5 -11,-7 11,-27 23,-54 35,-80z"/>
  <path class="fil8 str1" d="M4786 4945c11,14 16,2 12,-7 -12,-27 -23,-54 -35,-80 -5,-8 -15,-5 -12,7 12,27 24,53 35,80z"/>
  <rect class="fil45" x="4111" y="4918" width="260" height="177"/>
  <rect class="fil32" x="4124" y="4936" width="162.641" height="12.5234"/>
  <rect class="fil32" x="4222" y="4964" width="52.4508" height="92.4158"/>
  <rect class="fil32" x="4300" y="4962" width="54.2134" height="40.5942"/>
  <rect class="fil32" x="4300" y="4937" width="52.0095" height="9.93262"/>
  <rect class="fil32" x="4301" y="5012" width="54.2134" height="44.912"/>
  <g id="_568518720">
   <rect class="fil32" x="4128" y="4960" width="74.4887" height="3.02312"/>
   <rect class="fil32" x="4128" y="5055" width="74.4887" height="3.02312"/>
   <rect class="fil32" x="4128" y="4964" width="74.4887" height="3.02312"/>
   <rect class="fil32" x="4129" y="4968" width="74.4887" height="3.02312"/>
   <rect class="fil32" x="4129" y="4972" width="74.4887" height="3.02312"/>
   <rect class="fil32" x="4129" y="4976" width="74.4887" height="3.02312"/>
   <rect class="fil32" x="4129" y="4979" width="74.4887" height="3.02312"/>
   <rect class="fil32" x="4129" y="4983" width="74.4887" height="3.02312"/>
   <rect class="fil32" x="4129" y="4987" width="74.4887" height="3.02312"/>
   <rect class="fil32" x="4129" y="4991" width="74.4887" height="3.02312"/>
   <rect class="fil32" x="4129" y="4994" width="74.4887" height="3.02312"/>
   <rect class="fil32" x="4129" y="4998" width="74.4887" height="3.02312"/>
   <rect class="fil32" x="4129" y="5002" width="74.4887" height="3.02312"/>
   <rect class="fil32" x="4129" y="5006" width="74.4887" height="3.02312"/>
   <rect class="fil32" x="4129" y="5010" width="74.4887" height="3.02312"/>
   <rect class="fil32" x="4129" y="5013" width="74.4887" height="3.02312"/>
   <rect class="fil32" x="4129" y="5017" width="74.4887" height="3.02312"/>
   <rect class="fil32" x="4129" y="5021" width="74.4887" height="3.02312"/>
   <rect class="fil32" x="4129" y="5025" width="74.4887" height="3.02312"/>
   <rect class="fil32" x="4129" y="5028" width="74.4887" height="3.02312"/>
   <rect class="fil32" x="4129" y="5032" width="74.4887" height="3.02312"/>
   <rect class="fil32" x="4129" y="5036" width="74.4887" height="3.02312"/>
   <rect class="fil32" x="4129" y="5040" width="74.4887" height="3.02312"/>
   <rect class="fil32" x="4129" y="5044" width="74.4887" height="3.02312"/>
   <rect class="fil32" x="4129" y="5047" width="74.4887" height="3.02312"/>
   <rect class="fil32" x="4129" y="5051" width="74.4887" height="3.02312"/>
  </g>
  <path class="fil46" d="M3783 4906c-8,2 -7,12 0,13 7,0 15,0 22,0 1,0 2,1 2,2l6 30c2,1 7,2 13,-6l-8 -34c-1,-5 -2,-6 -6,-6 -10,0 -19,1 -29,1z"/>
  <path class="fil46" d="M3829 5018c-2,-5 -6,-10 -8,-15 -12,4 -21,11 -21,23 1,18 12,22 27,24l111 0c8,0 12,-14 1,-16 -40,0 -80,1 -119,1 -5,-1 -10,-10 -1,-16 3,-2 6,-1 10,-1z"/>
  <path class="fil47" d="M3824 4945l110 0c11,0 12,5 10,12l-10 50c-2,6 -5,11 -12,12l-86 0c-6,0 -11,-2 -14,-9l-10 -53c-1,-7 5,-12 12,-12z"/>
  <circle class="fil48" cx="3846" cy="5044" r="19"/>
  <ellipse class="fil46" cx="3846" cy="5044" rx="10" ry="11"/>
  <circle class="fil48" cx="3903" cy="5043" r="19"/>
  <ellipse class="fil46" cx="3903" cy="5043" rx="10" ry="11"/>
  <rect class="fil49" x="3773" y="5125" width="154" height="126"/>
  <rect class="fil32" x="3782" y="5136" width="132.89" height="6.9095"/>
  <rect class="fil32" x="3791" y="5239" width="20.1378" height="11.5167"/>
  <polygon class="fil50" points="4440,5314 4591,5317 4591,5478 4435,5475 "/>
  <polygon class="fil51" points="4587,5317 4613,5317 4609,5450 4586,5448 "/>
  <polygon class="fil52" points="4561,5404 4694,5409 4692,5436 4560,5431 "/>
  <polygon class="fil53" points="4570,5431 4568,5497 4683,5501 4685,5434 "/>
  <rect class="fil32" x="4619" y="5406" width="13.2231" height="95.007"/>
  <path class="fil32" d="M4627 5408c6,-16 20,-40 38,-40 12,0 18,11 13,25 -6,12 -28,16 -51,15zm7 -6c5,-11 15,-29 28,-29 9,0 13,8 10,19 -5,9 -21,11 -38,10z"/>
  <path class="fil32" d="M4594 5366c19,3 26,20 35,41 -17,1 -35,3 -50,-15 -7,-13 0,-27 15,-26zm3 6c13,3 18,14 24,29 -12,0 -24,2 -34,-11 -5,-9 0,-18 10,-18z"/>
  <rect class="fil32" x="3789" y="5165" width="51.1645" height="2.07651"/>
  <rect class="fil32" x="3790" y="5230" width="51.1645" height="2.07651"/>
  <rect class="fil32" x="3789" y="5167" width="51.1645" height="2.07651"/>
  <rect class="fil32" x="3789" y="5170" width="51.1645" height="2.07651"/>
  <rect class="fil32" x="3789" y="5173" width="51.1645" height="2.07651"/>
  <rect class="fil32" x="3789" y="5175" width="51.1645" height="2.07651"/>
  <rect class="fil32" x="3789" y="5178" width="51.1645" height="2.07651"/>
  <rect class="fil32" x="3789" y="5180" width="51.1645" height="2.07651"/>
  <rect class="fil32" x="3789" y="5183" width="51.1645" height="2.07651"/>
  <rect class="fil32" x="3789" y="5186" width="51.1645" height="2.07651"/>
  <rect class="fil32" x="3789" y="5188" width="51.1645" height="2.07651"/>
  <rect class="fil32" x="3789" y="5191" width="51.1645" height="2.07651"/>
  <rect class="fil32" x="3789" y="5193" width="51.1645" height="2.07651"/>
  <rect class="fil32" x="3790" y="5196" width="51.1645" height="2.07651"/>
  <rect class="fil32" x="3790" y="5199" width="51.1645" height="2.07651"/>
  <rect class="fil32" x="3790" y="5201" width="51.1645" height="2.07651"/>
  <rect class="fil32" x="3790" y="5204" width="51.1645" height="2.07651"/>
  <rect class="fil32" x="3790" y="5206" width="51.1645" height="2.07651"/>
  <rect class="fil32" x="3790" y="5209" width="51.1645" height="2.07651"/>
  <rect class="fil32" x="3790" y="5212" width="51.1645" height="2.07651"/>
  <rect class="fil32" x="3790" y="5214" width="51.1645" height="2.07651"/>
  <rect class="fil32" x="3790" y="5217" width="51.1645" height="2.07651"/>
  <rect class="fil32" x="3790" y="5219" width="51.1645" height="2.07651"/>
  <rect class="fil32" x="3790" y="5222" width="51.1645" height="2.07651"/>
  <rect class="fil32" x="3790" y="5225" width="51.1645" height="2.07651"/>
  <rect class="fil32" x="3790" y="5227" width="51.1645" height="2.07651"/>
  <rect class="fil32" x="3861" y="5184" width="50.2478" height="2.03931"/>
  <rect class="fil32" x="3861" y="5187" width="50.2478" height="2.03931"/>
  <rect class="fil32" x="3861" y="5189" width="50.2478" height="2.03931"/>
  <rect class="fil32" x="3861" y="5192" width="50.2478" height="2.03931"/>
  <rect class="fil32" x="3861" y="5194" width="50.2478" height="2.03931"/>
  <rect class="fil32" x="3861" y="5197" width="50.2478" height="2.03931"/>
  <rect class="fil32" x="3861" y="5199" width="50.2478" height="2.03931"/>
  <rect class="fil32" x="3861" y="5202" width="50.2478" height="2.03931"/>
  <rect class="fil32" x="3861" y="5204" width="50.2478" height="2.03931"/>
  <rect class="fil32" x="3861" y="5207" width="50.2478" height="2.03931"/>
  <rect class="fil32" x="3861" y="5210" width="50.2478" height="2.03931"/>
  <rect class="fil32" x="3861" y="5212" width="50.2478" height="2.03931"/>
  <rect class="fil32" x="3861" y="5215" width="50.2478" height="2.03931"/>
  <rect class="fil32" x="3861" y="5217" width="50.2478" height="2.03931"/>
  <rect class="fil32" x="3861" y="5220" width="50.2478" height="2.03931"/>
  <rect class="fil32" x="3861" y="5222" width="50.2478" height="2.03931"/>
  <rect class="fil32" x="3861" y="5225" width="50.2478" height="2.03931"/>
  <rect class="fil32" x="3861" y="5227" width="50.2478" height="2.03931"/>
  <rect class="fil32" x="3818" y="5239" width="20.1378" height="11.6934"/>
  <path class="fil21 str4" d="M4563 5344c4,-69 11,-97 -46,-106 -61,6 -49,54 -52,104"/>
  <path class="fil21 str5" d="M4589 5317c4,-55 -1,-72 -47,-79 -37,3 -54,25 -52,76"/>
  <path class="fil21 str5" d="M4563 5344c4,-69 11,-97 -46,-106 -61,6 -49,54 -52,104"/>
  <polygon class="fil32" points="3566,5359 3643,5325 3697,5363 3753,5327 3828,5365 3827,5498 3751,5457 3699,5494 3641,5457 3569,5492 "/>
  <line class="fil21 str6" x1="3580" y1="5355" x2="3582" y2= "5486" />
  <line class="fil21 str6" x1="3610" y1="5342" x2="3610" y2= "5473" />
  <line class="fil21 str6" x1="3699" y1="5491" x2="3696" y2= "5374" />
  <line class="fil21 str6" x1="3755" y1="5328" x2="3755" y2= "5460" />
  <polygon class="fil39" points="3643,5325 3641,5457 3699,5494 3697,5360 "/>
  <line class="fil21 str6" x1="3642" y1="5327" x2="3643" y2= "5458" />
  <polygon class="fil39" points="3753,5327 3828,5365 3827,5498 3751,5457 "/>
  <line class="fil21 str6" x1="3785" y1="5344" x2="3785" y2= "5474" />
  <line class="fil21 str6" x1="3816" y1="5489" x2="3815" y2= "5359" />
  <polyline class="fil21 str6" points="3568,5437 3645,5403 3697,5438 3755,5402 3826,5437 "/>
  <polyline class="fil21 str6" points="3828,5470 3754,5434 3698,5470 3642,5435 3568,5471 "/>
  <polyline class="fil21 str6" points="3568,5372 3642,5336 3696,5374 3755,5336 3825,5370 "/>
  <polyline class="fil21 str6" points="3568,5405 3643,5371 3698,5406 3754,5368 3826,5405 "/>
  <ellipse class="fil8" cx="3680" cy="5378" rx="7" ry="6"/>
  <path class="fil52" d="M3680 5378c-11,-13 -24,-37 -26,-48 -1,-13 -1,-35 17,-43 5,-2 14,-3 21,0 15,5 18,27 15,45 -5,18 -15,32 -27,46z"/>
  <circle class="fil32" cx="3682" cy="5310" r="12"/>
  <path class="fil54" d="M3891 5507l321 -3 -36 -53c-20,-29 -56,-31 -86,-32l-2 -19 -66 2 -4 14c-43,6 -63,12 -90,44l-37 47z"/>
  <path class="fil32" d="M3717 5270l717 -2c-1,23 -4,53 -49,54 -208,0 -416,1 -624,1 -28,1 -40,-12 -44,-53z"/>
  <path class="fil55" d="M3984 5295c2,52 21,64 48,69l0 38 44 0c1,-12 2,-25 3,-37 37,-3 48,-36 48,-82 -48,4 -95,8 -143,12z"/>
  <path class="fil56 str1" d="M3963 5095c12,2 23,9 33,20 36,-1 72,-3 108,-4 15,6 22,15 26,34l0 119c-3,29 -13,57 -34,77 -10,5 -20,4 -29,0 -3,-15 -21,-18 -26,0 -8,5 -17,6 -26,0 -20,-15 -34,-40 -38,-74l3 -136c-2,-15 -7,-24 -17,-36z"/>
  <path class="fil57" d="M3834 4967c2,-6 11,-10 14,0l0 32c-1,6 -11,7 -14,0l0 -32z"/>
  <path class="fil57" d="M3859 4967c1,-6 11,-10 14,0l0 31c-2,6 -11,8 -14,0l0 -31z"/>
  <path class="fil57" d="M3884 4967c2,-7 11,-10 14,0l0 31c-1,6 -11,8 -14,0l0 -31z"/>
  <path class="fil57" d="M3909 4966c2,-6 11,-10 15,0l0 31c-2,6 -12,8 -15,0l0 -31z"/>
  <rect class="fil58" x="4322" y="5152" width="66.9953" height="63.9135"/>
  <ellipse class="fil32" cx="4355" cy="5179" rx="12" ry="13"/>
  <path class="fil32" d="M4335 5215c14,0 28,0 42,0 -4,-6 -7,-13 -14,-17 -4,-2 -10,-2 -15,1 -5,2 -10,8 -13,16z"/>
  <ellipse class="fil59" cx="3483" cy="4700" rx="13" ry="14"/>
  <ellipse class="fil59" cx="3384" cy="4848" rx="13" ry="14"/>
  <ellipse class="fil59" cx="3988" cy="4680" rx="13" ry="14"/>
  <ellipse class="fil59" cx="4180" cy="4679" rx="13" ry="14"/>
  <ellipse class="fil59" cx="4641" cy="4652" rx="13" ry="14"/>
  <ellipse class="fil59" cx="4738" cy="4798" rx="13" ry="14"/>
  <ellipse class="fil59" cx="4751" cy="5134" rx="13" ry="14"/>
  <ellipse class="fil59" cx="4604" cy="5237" rx="13" ry="14"/>
  <ellipse class="fil59" cx="3361" cy="5151" rx="13" ry="14"/>
  <ellipse class="fil59" cx="3509" cy="5253" rx="13" ry="14"/>
  <rect class="fil59" x="3379" y="4819" width="6.87769" height="17.4248"/>
  <rect class="fil59" x="3379" y="4773" width="6.87769" height="28.3338"/>
  <path class="fil59" d="M3382 4723c2,1 4,3 5,5 -2,3 -1,17 -1,26l-7 0c1,-10 -2,-28 3,-31z"/>
  <path class="fil59" d="M3394 4709c2,1 4,1 6,3 2,-4 15,-6 24,-6l0 -7c-10,1 -28,2 -30,10z"/>
  <rect class="fil59" transform="matrix(4.265E-015 -0.157781 0.247868 6.43192E-015 3440.4 4704.36)" width="42.7087" height="116.669"/>
  <rect class="fil59" transform="matrix(4.265E-015 -0.157781 0.247868 6.43192E-015 4041.78 4682.08)" width="42.7087" height="116.669"/>
  <rect class="fil59" transform="matrix(4.265E-015 -0.157781 0.247868 6.43192E-015 3994.17 4681.56)" width="42.7087" height="116.669"/>
  <rect class="fil59" transform="matrix(4.265E-015 -0.157781 0.247868 6.43192E-015 4090.01 4682.08)" width="42.7087" height="116.669"/>
  <rect class="fil59" transform="matrix(4.265E-015 -0.157781 0.247868 6.43192E-015 4138.25 4682.08)" width="42.7087" height="116.669"/>
  <rect class="fil59" transform="matrix(4.265E-015 -0.157781 0.247868 6.43192E-015 4650.03 4656.43)" width="42.7087" height="116.669"/>
  <rect class="fil59" x="4735" y="4771" width="6.87769" height="28.3338"/>
  <rect class="fil59" x="4737" y="4724" width="6.87769" height="28.3338"/>
  <path class="fil59" d="M4740 4674c-1,2 -3,4 -4,5 1,3 0,18 1,26l7 0c-2,-10 2,-28 -4,-31z"/>
  <path class="fil59" d="M4726 4659c-1,2 -4,2 -5,4 -2,-5 -16,-6 -25,-6l0 -7c11,1 28,1 30,9z"/>
  <rect class="fil59" x="4748" y="5145" width="6.87769" height="28.3338"/>
  <path class="fil59" d="M4732 5235c-1,-1 -3,-3 -4,-4 -3,1 -18,0 -27,1l0 6c10,-1 28,2 31,-3z"/>
  <path class="fil59" d="M4747 5222c-1,-1 -2,-4 -4,-5 5,-2 5,-16 5,-24l7 -1c-1,10 0,27 -8,30z"/>
  <rect class="fil59" transform="matrix(4.265E-015 -0.157781 0.247868 6.43192E-015 4651.35 5238.91)" width="42.7087" height="116.669"/>
  <rect class="fil59" transform="matrix(4.265E-015 -0.157781 0.247868 6.43192E-015 4605.65 5238.91)" width="42.7087" height="116.669"/>
  <rect class="fil59" transform="matrix(4.265E-015 -0.157781 0.247868 6.43192E-015 3480.97 5255.23)" width="42.7087" height="116.669"/>
  <rect class="fil59" transform="matrix(4.265E-015 -0.157781 0.247868 6.43192E-015 3431.93 5255.23)" width="42.7087" height="116.669"/>
  <path class="fil59" d="M3383 5249c1,-2 3,-3 5,-4 2,4 16,4 25,3l1 6c-11,1 -28,2 -31,-5z"/>
  <path class="fil59" d="M3368 5239c1,-1 2,-4 3,-5 -2,-3 -8,-16 -8,-25l-7 1c1,11 6,28 12,29z"/>
  <rect class="fil59" x="3354" y="5161" width="6.87769" height="28.3338"/>
  <circle class="fil21 str7" cx="3260" cy="5046" r="36"/>
  <path class="fil35 str8" d="M3348 5044l1 -6c-3,-1 -6,-2 -8,-3 -1,-1 -3,-2 -4,-4 -1,-3 -1,-5 -1,-9l7 -1c0,3 0,6 1,8 1,2 3,3 6,3l3 -19c-2,-1 -5,-2 -7,-4 -2,-1 -3,-2 -4,-4 -1,-2 -1,-5 0,-7 1,-5 3,-8 7,-11 2,-2 5,-3 10,-3l0 -3 4 0 -1 3c4,0 7,1 9,3 2,2 3,5 3,9l-7 1c0,-2 0,-4 -1,-5 -1,-2 -2,-3 -4,-3l-4 18c3,1 5,1 6,2 2,1 4,2 5,3 1,1 1,3 2,4 0,2 0,4 0,6 -1,4 -3,8 -7,11 -3,3 -7,4 -11,4l-1 7 -4 0zm10 -55c-3,0 -5,1 -7,3 -1,1 -2,3 -3,5 0,3 0,4 1,6 1,1 3,2 6,3l3 -17zm-4 43c2,0 4,-1 6,-3 2,-2 4,-4 4,-7 0,-2 0,-4 -1,-5 -1,-2 -3,-3 -6,-4l-3 19z"/>
  <path class="fil41 str9" d="M3259 5072l0 -5c-3,-1 -5,-1 -7,-2 -1,-1 -3,-2 -4,-4 -1,-2 -2,-4 -2,-7l5 -1c1,3 2,5 3,6 1,2 3,3 5,3l0 -16c-2,-1 -4,-2 -7,-3 -1,-1 -3,-2 -4,-4 0,-1 -1,-3 -1,-5 0,-4 1,-7 4,-9 2,-2 5,-3 8,-3l0 -3 3 0 0 3c3,0 6,1 8,2 2,2 3,5 4,8l-6 1c0,-2 -1,-4 -2,-5 -1,-1 -2,-2 -4,-2l0 15c3,1 5,1 5,2 2,0 3,1 4,2 2,1 2,3 3,4 0,1 1,3 1,5 0,3 -2,6 -4,9 -2,2 -5,3 -9,4l0 5 -3 0zm0 -46c-2,0 -4,1 -5,3 -1,1 -2,2 -2,4 0,2 1,3 2,5 1,1 3,2 5,2l0 -14zm3 36c2,0 4,-1 5,-2 2,-2 2,-4 2,-6 0,-2 0,-3 -1,-5 -1,-1 -3,-2 -6,-2l0 15z"/>
 </g>
</svg>
