<?xml version="1.0" encoding="UTF-8"?>
<!DOCTYPE svg PUBLIC "-//W3C//DTD SVG 1.1//EN" "http://www.w3.org/Graphics/SVG/1.1/DTD/svg11.dtd">
<!-- Creator: CorelDRAW 2018 (64-Bit Evaluation Version) -->
<svg xmlns="http://www.w3.org/2000/svg" xml:space="preserve" width="8.5in" height="11in" version="1.1" style="shape-rendering:geometricPrecision; text-rendering:geometricPrecision; image-rendering:optimizeQuality; fill-rule:evenodd; clip-rule:evenodd"
viewBox="0 0 8500 11000"
 xmlns:xlink="http://www.w3.org/1999/xlink"
 data-name="Layer 1">
 <defs>
  <style type="text/css">
   <![CDATA[
    .str0 {stroke:#535461;stroke-width:20.83;stroke-miterlimit:2.61313}
    .fil8 {fill:none}
    .fil2 {fill:#00B1E4}
    .fil1 {fill:#30374E}
    .fil11 {fill:#434175}
    .fil3 {fill:#444053}
    .fil13 {fill:#565387}
    .fil4 {fill:#AFC0E0}
    .fil7 {fill:#E3E8F4}
    .fil14 {fill:#EE8E9E}
    .fil12 {fill:black;fill-opacity:0.050980}
    .fil6 {fill:black;fill-opacity:0.101961}
    .fil0 {fill:#00B1E4;fill-opacity:0.101961}
    .fil5 {fill:white;fill-opacity:0.200000}
    .fil9 {fill:black;fill-opacity:0.250980}
    .fil10 {fill:url(#id0)}
   ]]>
  </style>
  <linearGradient id="id0" gradientUnits="userSpaceOnUse" x1="6564.44" y1="8035.04" x2="6564.44" y2="5158.88">
   <stop offset="0" style="stop-opacity:0.25098; stop-color:gray"/>
   <stop offset="0.541176" style="stop-opacity:0.121569; stop-color:gray"/>
   <stop offset="1" style="stop-opacity:0.101961; stop-color:gray"/>
  </linearGradient>
 </defs>
 <g id="Layer_x0020_1">
  <metadata id="CorelCorpID_0Corel-Layer"/>
  <g id="_2067885934352">
   <path class="fil0" d="M1840.79 5921.73c116.98,-191.09 381.54,-157.78 569.15,-58.03 187.61,99.75 374.81,248.65 581.28,220.05 174.09,-24.14 316.84,-175.94 393.96,-351.08 77.12,-175.13 99.75,-372.6 121.45,-566.02 27.27,-242.98 54.53,-486.13 81.76,-729.43 9.98,-88.96 21.76,-182.85 71.78,-253.24 66.1,-92.85 187.26,-121.4 290.9,-93.48 103.64,27.91 192.02,102.77 267.63,186.27 242.21,267.4 379.45,628.86 591.2,926.43 43.11,60.58 91.8,120.47 156.21,149.72 92.85,42.07 199.44,12.3 290.15,-34.53 295.95,-152.56 494.76,-463.89 690.14,-754.38 95.05,-141.19 210.93,-292.18 369.06,-307.55 166.37,-16.54 310.8,125.22 408.58,275.34 313.82,483.04 381.07,1142.48 760.18,1563.77 47.06,52.23 99,100.51 158.83,132.94 19.72,10.59 40.34,19.7 61.51,26.96 330.76,114.49 441.02,574.08 196.37,846.59 -5.28,5.8 -10.68,11.61 -16.13,17.41 -36.33,38.36 -77.47,74.62 -126.56,86.06 -45.67,10.56 -92.85,-1.62 -138.11,-14.8 -289.33,-84.43 -575.19,-213.49 -874.33,-207.22 -291.07,5.8 -567.17,140.26 -855,188.65 -193.53,32.56 -390.42,26.06 -586.09,19.03 -651.7,-23.43 -1303.28,-50.69 -1954.71,-81.8 -323.34,-14.85 -646.79,-29.02 -970.07,-45.55 -249.06,-12.94 -407.71,-41.43 -436.61,-330.48 -25.3,-253.12 -252.54,-566.54 -102.54,-811.65z"/>
   <ellipse class="fil1" cx="6373.67" cy="7866.17" rx="1566.73" ry="218.94"/>
   <path class="fil2" d="M2653.07 6921.63c0,0 76.6,-17.41 126.79,34.06 0,0 -32.26,29.01 -108.17,-3.14l-18.63 -30.93z"/>
   <path class="fil2" d="M2644.6 6920.87c0,0 -45.38,64.3 -16.59,130.28 0,0 39.23,-18.86 38.12,-101.26l-21.53 -29.01z"/>
   <path class="fil2" d="M2593.54 6823.96c0,0 27.22,-58.9 156.68,12.3 0,0 -13.93,39.34 -68.94,39.93 -55.02,0.58 -71.49,-23.27 -87.74,-52.23z"/>
   <path class="fil2" d="M2585.3 6820.37c0,0 -64.82,-3.02 -61.16,144.61 0,0 41.37,5.8 67.2,-42.83 25.82,-48.63 12.13,-73.75 -6.04,-101.78z"/>
   <path class="fil2" d="M2540.15 6705.47c0,0 29.02,-102.59 165.21,-39.93 0,0 -23.79,93.95 -149.71,73.35l-15.5 -33.43z"/>
   <path class="fil2" d="M2489.61 6558.43c0,0 61.4,-105.85 188.54,-19.96 0,0 -35.92,97.89 -175.77,55.42l-12.77 -35.45z"/>
   <path class="fil2" d="M2465.58 6416.83c0,0 73.29,-98.36 199.39,-13.41 0,0 -69.98,86.7 -197.82,37.14l-1.57 -23.73z"/>
   <path class="fil2" d="M2443.88 6279.19c0,0 74.04,-102.48 194.92,-18.28 0,0 -85.19,91.86 -193.41,41.03l-1.51 -22.75z"/>
   <path class="fil2" d="M2442.84 6155.82c0,0 76.31,-130.74 189.46,-53.21 0,0 -83.68,113.56 -187.84,76.94l-1.62 -23.73z"/>
   <path class="fil2" d="M2453.11 6010.86c0,0 81.24,-129.98 192.02,-41.67 0,0 -99.23,114.61 -190.74,64.7l-1.28 -23.04z"/>
   <path class="fil2" d="M2474.17 5880.53c0,0 98.65,-123.66 194.69,-83.39 0,0 -102.6,131.15 -197.3,114.67l2.61 -31.28z"/>
   <path class="fil2" d="M2503.19 5756.35c0,0 113.39,-150.88 187.84,-108.05 0,0 -83.04,116.58 -194.86,135.5l7.02 -27.45z"/>
   <path class="fil2" d="M2547.41 5611.62c0,0 99.64,-123.72 179.89,-100.04 0,0 -83.85,127.03 -192.07,137.41l12.19 -37.37z"/>
   <path class="fil2" d="M2587.16 5476.36c0,0 111.3,-119.54 164.28,-103.41 0,0 -77.47,129.75 -167.82,128.54l3.54 -25.13z"/>
   <path class="fil2" d="M2626.44 5351.25c0,0 93.37,-140.14 149.83,-133.47 0,0 -54.03,122.96 -148.9,146.99l-0.93 -13.52z"/>
   <path class="fil2" d="M2667 5183.48c0,0 83.5,-108.28 132.36,-111.3 0,0 -62.15,141.24 -133.87,145.07l1.51 -33.78z"/>
   <path class="fil2" d="M2690.22 5072.01l73 -218.71c0,0 17.41,192.07 -81.24,258.93l8.24 -40.21z"/>
   <path class="fil2" d="M2709.89 4834.9c0,0 2.56,-178.67 -7.72,-192.48 0,0 72.36,143.56 12.42,271.06l-4.7 -78.57z"/>
   <path class="fil2" d="M2536.44 6703.32c0,0 -94.35,-50.02 -143.74,91.28 0,0 84.14,48.05 156.68,-56.93l-12.94 -34.35z"/>
   <path class="fil2" d="M2486.3 6552.91c0,0 -114.43,-43.23 -158.71,103.76 0,0 89.77,53.09 171.24,-68.24l-12.54 -35.51z"/>
   <path class="fil2" d="M2461 6425.71c0,0 -85.83,-87.68 -199.39,13.52 0,0 80.89,76.54 200.96,10.39l-1.57 -23.91z"/>
   <path class="fil2" d="M2441.15 6279.42c0,0 -87.04,-91.74 -195.61,7.89 0,0 96.68,79.67 197.3,14.8l-1.69 -22.69z"/>
   <path class="fil2" d="M2443.07 6159.3c0,0 -65.92,-136.19 -184.71,-67.72 0,0 74.63,119.72 181.28,91.34l3.43 -23.62z"/>
   <path class="fil2" d="M2459.9 6009.82c0,0 -65.74,-138.69 -186.04,-64.24 0,0 85.07,125.4 181.86,86.64l4.18 -22.4z"/>
   <path class="fil2" d="M2486.19 5880.41c0,0 -32.73,-154.65 -136.66,-161.73 0,0 32.96,163.24 124.82,190.8l11.84 -29.07z"/>
   <path class="fil2" d="M2505.86 5756.46c0,0 -21.3,-187.49 -107.12,-188.36 0,0 12.48,142.58 99.29,215.58l7.83 -27.22z"/>
   <path class="fil2" d="M2555.94 5605.65c0,0 -36.04,-154.7 -118.79,-168.28 0,0 20.31,150.87 113.33,207.28l5.46 -39z"/>
   <path class="fil2" d="M2596.91 5476.82c0,0 -11.61,-162.89 -63.25,-183.49 0,0 -20.95,149.6 50.19,205.31l13.06 -21.82z"/>
   <path class="fil2" d="M2630.15 5349.22c0,0 -18.28,-167.41 -71.43,-187.55 0,0 -8.7,133.99 64.41,199.04l7.02 -11.49z"/>
   <path class="fil2" d="M2675.13 5196.37c0,0 -9.52,-136.43 -48.46,-166.02 0,0 -26.58,151.98 31.05,194.74l17.41 -28.72z"/>
   <path class="fil2" d="M2685.22 5065.57l-51.07 -224.8c0,0 -36.15,189.41 55.54,265.66l-4.47 -40.85z"/>
   <path class="fil2" d="M2677.27 4839.26c0,0 -102.3,-146.7 -101.49,-163.76 0,0 20.54,159.46 141.65,231.48l-40.16 -67.72z"/>
   <path class="fil2" d="M2685.22 4793.47c0,0 -101.32,-211.17 -141.77,-226.31 0,0 128.19,54.72 148.61,219.35l-6.85 6.96z"/>
   <path class="fil3" d="M2665.15 5218.36l-5.8 -1.45c57.16,-243.72 65.22,-397.38 22.63,-432.67l3.94 -4.76c44.91,37.37 37.83,189.17 -20.78,438.87z"/>
   <path class="fil3" d="M2501.04 5790.87l-9 -2.5c6.33,-22.4 13.17,-45.2 20.48,-67.66 63.83,-195.67 116.87,-377.19 149.43,-516.11l7.37 -4.35c-32.61,139.27 -84.2,327.46 -147.92,523.31 -7.26,22.4 -14.1,45.03 -20.37,67.31z"/>
   <path class="fil3" d="M2774.07 7093.05c-1.28,-1.22 -128.94,-126.91 -227.01,-349.57 -57.31,-130.3 -94.02,-269.07 -108.01,-410.65 -17.41,-177.17 6.38,-377.94 58.03,-562.3l7.43 7.66c-116.06,413.8 -35.92,756.35 53.56,959.8 97.08,220.51 223.3,344.98 224.57,346.2l-8.57 8.85z"/>
   <path class="fil2" d="M2914.61 6430.3c0,0 46.42,-10.62 76.71,20.6 0,0 -19.56,17.41 -65.4,-1.92l-11.31 -18.69z"/>
   <path class="fil2" d="M2909.56 6429.89c0,0 -27.39,38.88 -9.98,78.74 0,0 23.68,-11.61 23.21,-61.22l-13.23 -17.52z"/>
   <path class="fil2" d="M2878.69 6371.22c0,0 16.42,-35.57 94.59,7.48 0,0 -8.41,23.73 -41.67,24.08 -33.25,0.35 -43,-14.04 -52.92,-31.57z"/>
   <path class="fil2" d="M2873.7 6369.07c0,0 -39.23,-1.8 -37.02,87.39 0,0 25.01,3.48 40.62,-25.88 15.61,-29.36 7.37,-44.57 -3.6,-61.51z"/>
   <path class="fil2" d="M2846.26 6299.61c0,0 17.81,-62.03 99.98,-24.26 0,0 -14.33,56.81 -90.47,44.33l-9.52 -20.08z"/>
   <path class="fil2" d="M2815.85 6210.71c0,0 37.08,-63.83 113.97,-12.07 0,0 -21.76,59.19 -106.25,33.48l-7.72 -21.41z"/>
   <path class="fil2" d="M2801.28 6125.12c0,0 44.33,-59.48 120.53,-8.13 0,0 -42.25,52.23 -119.54,22.46l-0.98 -14.33z"/>
   <path class="fil2" d="M2788.17 6041.91c0,0 44.8,-61.98 117.86,-11.03 0,0 -51.47,55.54 -116.93,24.78l-0.93 -13.75z"/>
   <path class="fil2" d="M2787.59 5967.28c0,0 46.43,-78.98 114.49,-32.15 0,0 -50.6,68.65 -113.56,46.43l-0.93 -14.28z"/>
   <path class="fil2" d="M2793.62 5879.72c0,0 49.27,-78.63 116.06,-25.42 0,0 -60,69.29 -115.36,39.11l-0.7 -13.7z"/>
   <path class="fil2" d="M2806.5 5800.91c0,0 59.6,-74.74 117.69,-50.37 0,0 -62.03,79.27 -119.13,69.29l1.45 -18.92z"/>
   <path class="fil2" d="M2824.03 5725.82c0,0 68.53,-91.16 113.56,-65.34 0,0 -50.19,70.5 -117.8,81.93l4.24 -16.59z"/>
   <path class="fil2" d="M2850.78 5638.43c0,0 60.23,-74.8 108.86,-60.47 0,0 -50.66,76.77 -116.06,83.04l7.2 -22.57z"/>
   <path class="fil2" d="M2874.81 5556.55c0,0 67.26,-72.24 99.29,-62.5 0,0 -46.77,78.4 -101.44,77.7l2.15 -15.2z"/>
   <path class="fil2" d="M2898.54 5480.94c0,0 56.46,-84.72 90.58,-80.78 0,0 -32.61,74.33 -90,88.9l-0.58 -8.12z"/>
   <path class="fil2" d="M2923.14 5379.51c0,0 50.49,-65.46 80.02,-67.31 0,0 -37.6,85.42 -80.95,87.57l0.93 -20.25z"/>
   <path class="fil2" d="M2937.13 5312.07l44.04 -132.07c0,0 10.44,116.06 -49.27,156.68l5.22 -24.61z"/>
   <path class="fil2" d="M2949.02 5168.74c0,0 1.51,-107.99 -4.7,-116.35 0,0 43.76,86.75 7.49,163.87l-2.79 -47.52z"/>
   <path class="fil2" d="M2844.11 6298.34c0,0 -56.98,-30.29 -87.04,55.13 0,0 50.89,29.02 94.76,-34.35l-7.72 -20.77z"/>
   <path class="fil2" d="M2813.87 6207.12c0,0 -69.23,-26.11 -95.98,62.73 0,0 54.26,32.09 103.52,-41.2l-7.54 -21.53z"/>
   <path class="fil2" d="M2798.5 6130.46c0,0 -51.82,-52.98 -120.52,8.12 0,0 48.92,46.43 121.51,6.27l-0.99 -14.39z"/>
   <path class="fil2" d="M2786.54 6042.02c0,0 -52.63,-55.42 -118.26,4.82 0,0 58.44,48.11 119.19,8.94l-0.93 -13.76z"/>
   <path class="fil2" d="M2787.7 5969.2c0,0 -39.87,-82.34 -111.7,-40.97 0,0 45.15,72.36 109.62,55.24l2.09 -14.27z"/>
   <path class="fil2" d="M2797.86 5878.96c0,0 -39.75,-83.85 -112.63,-38.82 0,0 51.41,75.84 109.96,52.22l2.67 -13.4z"/>
   <path class="fil2" d="M2813.76 5800.91c0,0 -19.78,-93.54 -82.63,-97.78 0,0 19.91,98.65 75.44,115.3l7.19 -17.52z"/>
   <path class="fil2" d="M2825.65 5725.88c0,0 -12.76,-113.33 -64.99,-113.91 0,0 7.55,86.23 60,130.39l4.99 -16.48z"/>
   <path class="fil2" d="M2855.89 5634.72c0,0 -21.76,-93.54 -71.78,-101.78 0,0 12.3,91.16 68.53,125.28l3.25 -23.5z"/>
   <path class="fil2" d="M2880.67 5556.84c0,0 -7.13,-98.65 -38.18,-110.95 0,0 -12.71,90.47 30.29,124.13l7.89 -13.17z"/>
   <path class="fil2" d="M2900.8 5479.67c0,0 -11.03,-101.2 -43.17,-113.39 0,0 -5.28,81.24 38.94,120.35l4.24 -6.96z"/>
   <path class="fil2" d="M2927.96 5387.28c0,0 -5.8,-82.46 -29.02,-100.39 0,0 -16.07,91.92 18.74,117.74l10.27 -17.35z"/>
   <path class="fil2" d="M2934.23 5308.19l-30.87 -135.91c0,0 -21.88,114.55 33.54,160.63l-2.67 -24.72z"/>
   <path class="fil2" d="M2929.3 5171.41c0,0 -61.8,-88.61 -61.33,-99 0,0 12.36,96.39 85.59,139.91l-24.26 -40.91z"/>
   <path class="fil2" d="M2933.94 5143.68c0,0 -61.28,-127.67 -85.71,-136.66 0,0 77.53,33.07 89.83,132.65l-4.12 4z"/>
   <path class="fil3" d="M2921.93 5400.51l-3.66 -0.87c34.82,-147.33 39.46,-240.24 13.7,-261.54l2.38 -2.9c27.33,22.63 23.04,114.43 -12.42,265.31z"/>
   <path class="fil3" d="M2822.76 5746.71l-5.46 -1.56c3.83,-13.52 8.01,-27.28 12.42,-40.62 38.48,-118.32 70.62,-228.06 90.3,-312.02l4.46 -2.67c-19.73,84.14 -50.89,197.99 -89.42,316.43 -4.41,13.41 -8.53,26.93 -12.3,40.44z"/>
   <path class="fil3" d="M2987.79 6533.94c-0.76,-0.76 -77.93,-76.72 -137.24,-211.34 -34.61,-78.7 -56.84,-162.74 -65.31,-248.28 -10.62,-107.12 3.89,-228.52 35.17,-339.99l4.47 4.64c-70.16,250.17 -21.7,457.27 32.38,580.29 58.73,133.46 134.98,208.5 135.79,209.25l-5.25 5.43z"/>
   <path class="fil4" d="M3162.34 6824.08c-14.89,2.61 -29.49,6.81 -43.52,12.42 -313.01,124.99 -307.79,943.2 -307.79,943.2l-92.15 0c0,0 -29.02,-351.13 -155.46,-852.09 -113.91,-450.71 353.28,-854.65 448.16,-931.25 10.68,-8.53 16.6,-13.06 16.6,-13.06 470.56,172.93 134.16,840.78 134.16,840.78z"/>
   <path class="fil5" d="M3062.41 5997.52c-10.85,-4.99 -22.05,-9.75 -33.95,-14.1 0,0 -5.8,4.53 -16.59,13.06 -94.88,76.6 -562.07,480.54 -448.16,931.25 126.45,500.96 155.17,851.98 155.17,851.98l51.82 0c0,0 -28.72,-351.13 -155.46,-852.09 -113.44,-448.62 349.22,-851.06 447.17,-930.09z"/>
   <path class="fil4" d="M4714.85 6927.72c-126.74,500.96 -155.29,851.98 -155.29,851.98l-92.33 0c0,0 5.8,-855.11 -329.2,-950.57 -7.22,-2.17 -14.64,-3.93 -22.1,-5.18 -7.46,-1.25 -336.57,-667.85 134.17,-840.67 0,0 4.76,3.54 13.35,10.44 87.21,69.83 566.59,478.06 451.4,933.99z"/>
   <path class="fil6" d="M3162.34 6824.08c-14.89,2.61 -29.49,6.81 -43.52,12.42 -56.06,-275.98 -92.83,-558.32 -107.4,-839.97 10.68,-8.53 16.6,-13.06 16.6,-13.06 470.72,172.75 134.32,840.61 134.32,840.61z"/>
   <path class="fil6" d="M4263.61 5993.86c-18.53,280.17 -61.3,561.66 -125.13,835.5 -7.5,-2.04 -14.91,-3.81 -22.38,-5.06 -7.46,-1.25 -336.57,-667.85 134.17,-840.67 -0.18,-0.22 4.58,3.32 13.34,10.22z"/>
   <path class="fil7" d="M4091.33 6950.7c-32.5,128.2 -70.58,259.74 -114.26,394.6 -43.67,134.86 -207.28,215.93 -707.95,0 0,0 -50.02,-141.01 -105.04,-380.73 -121.11,-527.08 -266.35,-1531.5 43.12,-2563.2 91.76,-309.88 223.5,-607.58 389.93,-884.65 166.43,-277.07 264.38,303.55 458.43,884.54 194.05,580.98 317.45,1439.46 35.78,2549.44z"/>
   <circle class="fil4" cx="3639.11" cy="5220.39" r="415.66"/>
   <path class="fil2" d="M3933.89 5220.62c0,162.77 -132,294.78 -294.78,294.78 -68.13,0 -134.17,-23.65 -186.86,-66.8 -21.02,-17.3 -39.67,-37.55 -55.24,-59.91 -7,-10.01 -13.41,-20.53 -19.04,-31.3 -22.07,-42.1 -33.6,-88.98 -33.6,-136.54 0,-0.07 0,-0.18 0,-0.25 0,-2.38 0,-4.7 0,-7.02 3.05,-129.37 90.18,-241.71 214.7,-276.92 23.13,-6.37 47.06,-10.01 71.02,-10.8l8.83 0.02c0.03,0 0.14,0 0.18,0 162.78,0 294.75,131.93 294.79,294.71l-0 0.02z"/>
   <path class="fil4" d="M4055.41 4401.2c-471.6,225.79 -848.5,0 -848.5,0 91.84,-309.99 223.58,-607.69 390.01,-884.76 166.43,-277.07 264.5,303.77 458.49,884.76z"/>
   <path class="fil4" d="M4091.33 6950.7c-22.05,86.81 -46.62,175.11 -73.7,264.9 -1612.94,-2641.17 -2426.52,-3940 -2440.76,-3896.48 -14.24,43.52 -207.28,215.93 -707.96,0 0,0 -16.25,-45.79 -40.62,-129.52 -18.22,-63.25 -40.91,-148.03 -64.59,-251.21 0,0 186.39,79.56 450.94,79.56 -627.04,458.69 -997.94,1189.48 -997.94,1966.37 0,1345.28 1090.98,2436.27 2436.28,2436.27 516.94,0 1021.39,-164.78 1438.39,-469.94l-0.05 0.05z"/>
   <path class="fil7" d="M4017.63 7215.6c-12.84,42.83 -26.39,86 -40.62,129.52 -14.24,43.52 -207.28,215.93 -707.95,0 0,0 -16.25,-45.79 -40.62,-129.52 -0.06,0 510.25,146.81 789.2,0z"/>
   <path class="fil5" d="M3559.26 4936.28l-0.64 0.46 -214.13 276.45c0,2.32 0,4.64 0,7.02 0,0.06 0,0.17 0,0.24 0,47.56 11.53,94.43 33.58,136.53l252.31 -431.5 -71.13 10.8z"/>
   <path class="fil5" d="M3627.62 5185.81l-175.37 262.58c-21.02,-17.31 -39.67,-37.56 -55.24,-59.93l208.91 -224.22 21.7 21.57z"/>
   <path class="fil5" d="M3381.11 7345.18c0,0 -50.02,-141.07 -105.04,-380.73 -121.11,-527.14 -266.35,-1531.56 43.12,-2563.26 82.75,-278.91 198.04,-548.06 341.55,-801.21 -39.28,-55.07 -63.83,-83.15 -63.83,-83.15 -166.3,276.71 -298.02,574.37 -389.9,884.23 -309.47,1031.7 -164.22,2036.13 -43.11,2563.26 55.01,239.66 105.03,380.73 105.03,380.73 197.82,85.24 349.8,103.12 461.33,93.6 -95.39,-7.12 -211.09,-33.98 -349.15,-93.46z"/>
   <path class="fil8 str0" d="M7227.16 7746.57c0,0 271.23,-337.5 253.24,-675.52 -0.76,-12.91 -1.17,-26.04 -1.17,-39.02 0,-128.62 37.89,-254.52 108.76,-361.76 37.58,-55.9 80.43,-108.59 127.59,-156.69"/>
   <path class="fil2" d="M7705.37 6300.78c-19.38,47.06 9.63,218.65 9.63,218.65 0,0 141.42,-101.44 160.8,-148.5 4.56,-11.12 6.93,-23.06 6.93,-35.08 0,-50.89 -41.27,-92.15 -92.15,-92.15 -37.34,0 -71,22.56 -85.21,57.07l-0 0z"/>
   <path class="fil2" d="M7457.13 6503.53c9.34,50.02 126.97,178.27 126.97,178.27 0,0 63.83,-161.96 54.26,-212.04 -8.13,-43.65 -46.22,-75.29 -90.61,-75.29 -50.89,0 -92.17,41.28 -92.17,92.17 0,5.66 0.53,11.33 1.57,16.89l-0 0z"/>
   <path class="fil2" d="M7279.91 6951.63c33.31,38.47 199.62,89.83 199.62,89.83 0,0 -26.93,-171.94 -60.24,-210.47 -17.46,-19.3 -42.3,-30.33 -68.33,-30.33 -50.89,0 -92.15,41.27 -92.15,92.15 0,21.46 7.52,42.3 21.21,58.81l-0.11 0z"/>
   <path class="fil2" d="M7222.17 7320.87c26.29,43.58 181.52,122.27 181.52,122.27 0,0 2.55,-174.09 -23.73,-217.61 -16.7,-27.61 -46.62,-44.5 -78.9,-44.5 -50.9,0 -92.17,41.28 -92.17,92.17 0,16.8 4.6,33.3 13.29,47.67l-0 0z"/>
   <path class="fil2" d="M7759.28 6764.6c-47.24,18.86 -218.54,-11.9 -218.54,-11.9 0,0 102.83,-140.37 150.12,-159.29 10.87,-4.35 22.49,-6.59 34.2,-6.59 50.9,0 92.17,41.28 92.17,92.17 0,37.7 -22.96,71.61 -57.96,85.59l0 0.01z"/>
   <path class="fil2" d="M7686.28 7195.58c-50.72,3.89 -204.96,-76.71 -204.96,-76.71 0,0 140.08,-103.23 190.86,-107.12 1.69,-0.09 3.43,-0.15 5.13,-0.15 50.91,0 92.21,41.29 92.21,92.2 0,47.45 -36.02,87.15 -83.24,91.77l0 0z"/>
   <path class="fil2" d="M7557.87 7604.69c-49.38,12.42 -215,-40.97 -215,-40.97 0,0 120.65,-125.4 170.03,-137.76 7.33,-1.84 14.91,-2.79 22.48,-2.79 50.89,0 92.15,41.26 92.15,92.15 0,42.22 -28.72,79.07 -69.66,89.36l0 0.01z"/>
   <path class="fil9" d="M7705.37 6300.78c-19.38,47.06 9.63,218.65 9.63,218.65 0,0 141.42,-101.44 160.8,-148.5 4.56,-11.12 6.93,-23.06 6.93,-35.08 0,-50.89 -41.27,-92.15 -92.15,-92.15 -37.34,0 -71,22.56 -85.21,57.07l-0 0z"/>
   <path class="fil9" d="M7457.13 6503.53c9.34,50.02 126.97,178.27 126.97,178.27 0,0 63.83,-161.96 54.26,-212.04 -8.13,-43.65 -46.22,-75.29 -90.61,-75.29 -50.89,0 -92.17,41.28 -92.17,92.17 0,5.66 0.53,11.33 1.57,16.89l-0 0z"/>
   <path class="fil9" d="M7279.91 6951.63c33.31,38.47 199.62,89.83 199.62,89.83 0,0 -26.93,-171.94 -60.24,-210.47 -17.46,-19.3 -42.3,-30.33 -68.33,-30.33 -50.89,0 -92.15,41.27 -92.15,92.15 0,21.46 7.52,42.3 21.21,58.81l-0.11 0z"/>
   <path class="fil9" d="M7222.17 7320.87c26.29,43.58 181.52,122.27 181.52,122.27 0,0 2.55,-174.09 -23.73,-217.61 -16.7,-27.61 -46.62,-44.5 -78.9,-44.5 -50.9,0 -92.17,41.28 -92.17,92.17 0,16.8 4.6,33.3 13.29,47.67l-0 0z"/>
   <path class="fil9" d="M7759.28 6764.6c-47.24,18.86 -218.54,-11.9 -218.54,-11.9 0,0 102.83,-140.37 150.12,-159.29 10.87,-4.35 22.49,-6.59 34.2,-6.59 50.9,0 92.17,41.28 92.17,92.17 0,37.7 -22.96,71.61 -57.96,85.59l0 0.01z"/>
   <path class="fil9" d="M7686.28 7195.58c-50.72,3.89 -204.96,-76.71 -204.96,-76.71 0,0 140.08,-103.23 190.86,-107.12 1.69,-0.09 3.43,-0.15 5.13,-0.15 50.91,0 92.21,41.29 92.21,92.2 0,47.45 -36.02,87.15 -83.24,91.77l0 0z"/>
   <path class="fil9" d="M7557.87 7604.69c-49.38,12.42 -215,-40.97 -215,-40.97 0,0 120.65,-125.4 170.03,-137.76 7.33,-1.84 14.91,-2.79 22.48,-2.79 50.89,0 92.15,41.26 92.15,92.15 0,42.22 -28.72,79.07 -69.66,89.36l0 0.01z"/>
   <path class="fil8 str0" d="M7229.59 7732.47c0,0 384.73,-198.69 505.26,-514.95 49.63,-132.93 141.3,-246.37 260.82,-322.82 56.87,-35.78 117.28,-66.59 179.84,-91.48"/>
   <path class="fil2" d="M8252.65 6604.38c-36.79,35.22 -79.79,203.86 -79.79,203.86 0,0 170.37,-35.46 207.17,-70.62 18.23,-17.4 28.56,-41.53 28.56,-66.74 0,-50.94 -41.31,-92.25 -92.25,-92.25 -23.72,0 -46.53,9.15 -63.69,25.51l0 0.24z"/>
   <path class="fil2" d="M7943.59 6689.17c-11.61,49.56 43.81,214.7 43.81,214.7 0,0 123.54,-122.27 135.5,-172.11 1.61,-6.87 2.42,-13.93 2.42,-20.99 0,-50.89 -41.27,-92.15 -92.15,-92.15 -42.56,0 -79.62,29.19 -89.58,70.55l0.01 0z"/>
   <path class="fil2" d="M7599.94 7027.01c14.85,48.69 146.11,163 146.11,163 0,0 45.09,-168.28 30.24,-216.74 -11.82,-38.79 -47.62,-65.31 -88.18,-65.31 -50.9,0 -92.18,41.28 -92.18,92.18 0,9.1 1.36,18.16 4.01,26.86l-0 0.01z"/>
   <path class="fil2" d="M7397.53 7341.18c6.38,50.54 116.41,185.35 116.41,185.35 0,0 72.89,-158.01 66.44,-208.56 -5.84,-46.04 -45.03,-80.56 -91.43,-80.56 -50.89,0 -92.16,41.27 -92.16,92.16 0,3.87 0.25,7.78 0.73,11.61l0 0z"/>
   <path class="fil2" d="M8114.02 7050.28c-50.89,-1.86 -194.98,-99.41 -194.98,-99.41 0,0 150.87,-86.64 201.77,-84.78 49.53,1.82 88.76,42.52 88.76,92.09 0,50.89 -41.27,92.16 -92.15,92.16 -1.13,0 -2.28,-0.04 -3.4,-0.07l0 0.01z"/>
   <path class="fil2" d="M7872.61 7414.7c-47.99,-17 -156.33,-153.2 -156.33,-153.2 0,0 169.97,-37.55 217.9,-20.54 36.78,13.02 61.37,47.83 61.37,86.87 0,50.89 -41.27,92.16 -92.16,92.16 -10.49,0 -20.91,-1.79 -30.78,-5.29l0 0z"/>
   <path class="fil2" d="M7589.37 7736.7c-50.13,-8.65 -179.89,-124.59 -179.89,-124.59 0,0 161.15,-65.69 211.28,-57.05 44.2,7.61 76.49,45.97 76.49,90.81 0,50.89 -41.27,92.16 -92.16,92.16 -5.24,0 -10.51,-0.45 -15.67,-1.34l-0.05 0z"/>
   <path class="fil10" d="M7776.63 7545.96l-298.21 -432.49c0,0 -5.8,-107.07 -25.07,-132.07 -19.26,-25.01 -4.18,-80.66 -4.18,-80.66 0,0 20.89,-30.58 2.79,-33.37 -18.11,-2.79 -2.79,-70.97 -2.79,-70.97l-1.39 -108.46c0,0 16.71,-104.45 2.79,-129.29 -3.85,-6.39 -5.89,-13.72 -5.89,-21.18 0,-8.33 2.54,-16.48 7.28,-23.33 4.74,-6.85 16.71,-59.83 0,-75.09 -16.71,-15.26 -12.54,-108.52 -8.36,-182.21 4.18,-73.7 -29.3,-115.42 -29.3,-126.56 0,-11.14 -110.26,-119.6 -110.26,-129.29 0,-9.69 -69.63,-50.08 -111.47,-61.22 -41.84,-11.14 -62.73,-19.44 -61.33,-25.01 1.39,-5.57 -65.52,-27.8 -65.52,-27.8 0,0 -58.55,-4.18 -80.89,-33.43 -22.34,-29.25 -90.47,-37.6 -92.44,-37.89 -0.41,-1.91 -0.87,-3.89 -1.28,-5.8 -0.41,-1.91 -0.87,-4.18 -1.28,-6.27 5.28,-8.88 10.16,-17.93 14.57,-27.27 1.33,-2.84 2.61,-5.8 3.83,-8.47 24.43,-1.1 49.5,-6.33 68.65,-21.3 19.87,-16.63 31.97,-40.8 33.36,-66.67 0.09,-2.22 0.16,-4.49 0.16,-6.72 0,-23.45 -5.65,-46.58 -16.45,-67.39 -12.19,-25.07 -30.12,-51.01 -23.96,-78.16 2.73,-11.61 9.75,-22.05 13.35,-33.54 6.79,-21.76 0.52,-45.67 -10.04,-65.86 -10.56,-20.19 -25.24,-37.95 -36.96,-57.5 -14.94,-24.89 -24.98,-52.55 -29.42,-81.26 -2.38,-15.09 -3.31,-30.99 -10.91,-44.28 -6.3,-9.84 -14.65,-18.27 -24.44,-24.65 -41.39,-29.59 -91.11,-45.56 -142.02,-45.56 -2.59,0 -5.24,0.06 -7.81,0.12 -37.95,1.33 -75.79,11.61 -113.44,6.91 -22.69,-2.78 -44.33,-10.85 -66.27,-17.41 -46.77,-13.81 -100.68,-19.5 -141.42,7.25 -40.74,26.75 -56.93,79.39 -84.49,120.53 -24.37,36.44 -60.12,66.96 -78.69,105.5 0,-0.7 0.35,-1.45 0.58,-2.2 -4.56,8.91 -8.06,18.35 -10.39,28.09 -7.08,30.29 -1.16,61.98 6.21,92.21 3.77,15.61 8.99,32.56 22.52,41.2 13.52,8.65 32.67,6.73 48.69,9.57 -0.58,2.61 -1.28,5.28 -1.85,7.95 -4.57,21.67 -6.91,43.81 -6.91,65.98 0,141.03 92.8,265.29 227.96,305.39 0,2.84 0,5.8 0,8.47 -0.05,8 -0.54,16.03 -1.46,23.93l-0.01 0c0,0 -140.14,-29.02 -177.8,-9.29 -37.66,19.73 -111.53,34.82 -122.67,45.84 -11.14,11.03 -39,2.79 -63.83,68.19 -24.83,65.4 -27.85,132.07 -59.94,162.48 -32.09,30.41 -48.75,51.47 -50.14,73.76 -1.39,22.28 4.18,27.8 -8.41,34.81 -12.59,7.02 -30.64,36.15 -25.07,47.3 0,0 6.96,27.8 -15.32,41.67 -22.28,13.87 -19.56,41.72 -19.56,41.72 0,0 -8.35,30.64 -27.85,37.54 -19.5,6.91 -32.09,52.87 -32.09,52.87l-63.43 72.82 -125.28 -138.69c-10.01,-11.08 -24.26,-17.43 -39.2,-17.43 -13.06,0 -25.67,4.85 -35.37,13.59l-61.51 55.48c-23.72,5.74 -45.23,18.56 -61.58,36.67 -13.38,13.74 -24.19,29.87 -31.85,47.47l-33.71 30.29c-12.26,15.2 -18.97,34.19 -18.97,53.73 0,14.22 3.55,28.24 10.31,40.74l80.26 88.72 0.52 0.76c-30.35,3.83 -57.16,13.58 -77.64,31.63 -119.83,105.67 -121.28,203.1 -103.12,247.5 18.17,44.39 170.03,215.58 170.03,215.58 0,0 88.26,114.72 215.69,175.77l0 0 -0.98 0.99c-2.5,2.67 -4.99,5.8 -7.43,8.7l-2.09 2.67 -1.91 2.67 -2.26 3.37c-0.64,0.87 -1.22,1.8 -1.8,2.73 -0.58,0.93 -1.63,2.61 -2.38,4l-1.56 2.67c-0.93,1.74 -1.92,3.54 -2.84,5.4l-0.93 1.8c-1.16,2.44 -2.32,4.93 -3.43,7.54 -0.41,0.93 -0.75,1.91 -1.16,2.84 -0.7,1.8 -1.45,3.66 -2.15,5.8 -0.7,2.15 -0.87,2.38 -1.28,3.6 -0.41,1.22 -1.22,3.59 -1.8,5.45 -0.58,1.86 -0.81,2.61 -1.16,3.89 -0.35,1.28 -1.16,4.06 -1.69,6.15 -0.52,2.09 -0.64,2.44 -0.98,3.78 -0.76,3.19 -1.51,6.5 -2.15,9.98 0,1.28 -0.46,2.61 -0.7,3.94 -0.46,2.32 -0.87,4.7 -1.22,7.13 -0.29,1.69 -0.46,3.37 -0.7,5.05 -0.23,1.68 -0.58,4.58 -0.87,6.91l-0.52 5.34c0,2.55 -0.46,5.22 -0.64,7.89 0,1.63 0,3.25 -0.29,4.88 0,4.41 -0.46,8.82 -0.52,13.46 -2.79,162.48 6.73,186.33 6.73,186.33 0,0 19.67,51.82 73.98,55.54 2.29,0.15 4.61,0.24 6.91,0.24 5.67,0 11.36,-0.52 16.94,-1.52 72.48,-12.53 242.5,-41.72 302.44,-30.58 36.04,6.68 102.77,-3.19 150.3,-12.19l12.48 -2.38 8.7 27.62 27.56 -7.55 23.21 13.52 14.8 8.47c27.51,93.31 139.27,61.51 139.27,61.51l26.23 15.2 269.02 6.96c0,0 58.03,34.81 95.22,45.72 4.41,1.33 8.96,2.33 13.52,2.95 16.16,1.28 32.56,1.96 48.81,1.96 8.72,0 17.52,-0.22 26.17,-0.6 20.6,-0.52 36.56,-1.39 36.56,-1.39 0,0 -2.73,-73.06 -6.67,-154.82 102.83,-4.3 193.99,-10.74 249.17,-20.43 143.68,-25.24 203.63,-155.87 225.68,-225.68 6.61,28.52 11.34,57.54 14.07,86.65 5.85,25.46 13.41,50.71 22.41,75.14 7.77,19.67 18.11,38.44 30.6,55.57 105.96,-36.15 41.84,-90.35 19.5,-114.03 -22.34,-23.68 15.38,-43.11 15.38,-43.11 0,0 29.01,-19.44 26.46,-37.55 -2.56,-18.11 -4.18,-37.55 90.58,-36.15 94.76,1.39 90.82,-78.05 90.82,-78.05zm-1745.34 -634.55c1.22,7.95 14.45,93.66 26.41,116.06 2.5,4.76 3.48,21.65 3.13,45.79 -56.17,-4.47 -114.67,-6.85 -114.67,-6.85 1.68,2.02 2.73,4.51 3.01,7.13l-8.82 -1.97 -12.83 -3.13 103.47 -157.37 0.29 0.35zm-290.09 481.12l97.2 15.44 8.19 1.28c-2.78,15.11 -4.49,30.57 -5.04,45.91 0,1.45 2.2,3.19 5.34,5.22 -1.28,7.18 -1.94,14.52 -1.94,21.83 0,0.44 0,0.92 0,1.36 1.57,7.72 47,24.31 99.11,38.13 -0.7,2.78 -1.39,5.45 -2.09,7.95l0.01 0c-46.02,-24.2 -118.55,-35.51 -126.91,-53.5 -8.35,-17.99 -255.33,-104.45 -255.33,-104.45 0,0 -9,-4.76 -24.55,-12.3l64.99 12.3 17.87 -1.8c197.98,-72.88 367.26,-208.48 481.7,-385.73l-358.56 408.36z"/>
   <path class="fil11" d="M7459.33 7606.49c0,0 -38.65,233.45 -234.84,267.98 -196.2,34.53 -851.06,27.62 -851.06,27.62 0,0 -374.4,-53.85 -509.78,-370.22 -135.38,-316.37 -222.43,-442.12 -106.37,-447.64 116.06,-5.51 741.91,211.4 777.59,214.13 35.69,2.73 958.99,-480.77 924.46,308.14z"/>
   <path class="fil12" d="M7459.33 7606.49c0,0 -38.65,233.45 -234.84,267.98 -196.2,34.53 -851.06,27.62 -851.06,27.62 0,0 -374.4,-53.85 -509.78,-370.22 -135.38,-316.37 -222.43,-442.12 -106.37,-447.64 116.06,-5.51 741.91,211.4 777.59,214.13 35.69,2.73 958.99,-480.77 924.46,308.14z"/>
   <path class="fil13" d="M5703.14 7866.17c0,0 19.56,51.53 73.35,55.19 2.22,0.15 4.47,0.23 6.7,0.23 5.67,0 11.34,-0.51 16.91,-1.51 71.84,-12.42 240.41,-41.43 299.78,-30.41 35.74,6.67 101.84,-3.19 148.9,-12.07 31.33,-5.8 54.2,-11.61 54.2,-11.61 0,0 -55.24,-183.72 -62.2,-189.23 -6.96,-5.52 -248.65,-150.59 -248.65,-150.59l-191.5 -13.75 -0.57 0c0,0 -35.45,2.38 -64.87,38.13 -20.25,24.43 -37.6,64.59 -38.76,130.39 -2.67,161.73 6.73,185.23 6.73,185.23z"/>
   <path class="fil12" d="M5703.14 7866.17c0,0 19.56,51.53 73.35,55.19 -18.78,-24.23 -36.35,-49.68 -52.2,-75.89l0.99 -133.99c-8.53,-100.33 38.41,-164.57 75.44,-198.87l-0.61 -0.01c0,0 -100.86,6.85 -103.64,168.28 -2.79,161.44 6.67,185.28 6.67,185.28z"/>
   <path class="fil6" d="M6533.71 7573.3l178.2 -139.27 280.46 -276.33c0,0 -30.29,-1.45 -75.96,-3.43 -11.61,7.26 -43.23,30.06 -44.39,58.03 -1.39,33.77 -75.84,2.32 -114.49,21.64 -38.65,19.33 -227.94,261.59 -261.13,260.03 -33.19,-1.57 -59.36,-16.83 -73.23,6.67 0,0.52 -0.64,0.99 -0.99,1.51l111.54 71.15z"/>
   <path class="fil6" d="M5735.23 7550.66c6.32,3.07 12.7,5.8 19.26,8.82 135.44,58.03 302.56,179.89 315.04,201.71 7.54,13.46 104.45,72.3 179.25,116.41 31.33,-5.8 54.2,-11.61 54.2,-11.61 0,0 -55.24,-183.72 -62.2,-189.24 -6.96,-5.51 -248.65,-150.58 -248.65,-150.58l-191.5 -13.76 -0.58 0c0,0 -35.39,2.5 -64.81,38.24z"/>
   <path class="fil11" d="M5359.43 7154.67c17.93,44.22 168.29,214.19 168.29,214.19 0,0 95.28,124.3 230.72,182.33 135.44,58.03 302.56,179.89 314.98,201.71 8,14.22 116.06,79.21 191.96,123.89l17 9.92 37.72 21.88 19.96 11.61c0,0 46.43,-37.14 92.32,-74.51 45.9,-37.37 90.7,-73.99 91.45,-76.08 1.34,-4.12 19.27,-51.12 15.15,-53.85 -2.15,-1.45 -11.61,-20.6 -29.01,-42.77 -18.54,-24.58 -42.71,-44.5 -70.39,-58.03 -63.83,-29.02 -91.16,-95.05 -91.16,-95.05 0,0 -5.8,-4.41 -15.26,-10.22 -16.36,-10.33 -42.65,-25.19 -62.09,-27.68 -30.46,-3.83 -87.04,-65.98 -87.04,-65.98 0,0 -38.71,-24.89 -53.91,-56.64 -14.51,-30.29 -228.75,-177.45 -248.6,-191.03l519.42 333.56 124.3 79.91 178.21 -139.27 280.51 -276.33c0,0 -37.72,-1.86 -92.84,-4.18 -136.31,-5.8 -378.41,-15.15 -408.99,-8.24 -17.31,4 -35.12,6.08 -52.91,6.08 -7.71,0 -15.45,-0.4 -23.11,-1.14 -7.65,-0.74 -68.94,3.13 -114.55,-20.94 -45.61,-24.08 -117.51,-35.34 -125.81,-53.16 -8.3,-17.81 -252.83,-103.58 -252.83,-103.58 0,0 -332.91,-176.81 -451.76,-71.78 -118.85,105.04 -119.72,201.24 -101.74,245.4z"/>
   <path class="fil14" d="M6432.85 6140.67l42.83 142.29 55.24 320.5 203.1 13.81 58.78 -97.49 58.91 -97.31c0,0 36.56,-129.52 62.84,-254.81 23.21,-110.83 38.41,-218.42 13.11,-230.08 -22.4,-10.39 -37.14,-47.7 -46.42,-87.86 -1.22,-4.93 -2.32,-9.98 -3.37,-15.03 -6.64,-33.88 -11.31,-68.5 -13.51,-103.02 -2.19,-34.53 -425.53,-22.05 -366.11,153.37 10.63,29.91 16.06,61.54 16.06,93.29 0,0 0,0.04 0,0.04 -0.05,7.92 -0.56,15.88 -1.46,23.74 -6.11,55.33 -35.17,105.65 -80.02,138.58l0.01 0z"/>
   <path class="fil7" d="M6344.42 6117.17l15.2 241.75 34.53 205.83 38.7 95.34 34.53 521.57c0,0 333.15,38.53 414.15,-0.7 5.83,-2.49 10.91,-6.51 14.68,-11.61 97.84,-147.56 65.75,-575.59 65.75,-575.59l37.31 -276.39 -24.9 -143.45 -60.06 -6.38 -46.43 -4.93c0,0 -10.44,12.89 -25.53,32.79 -40.97,54.08 -116.06,160.45 -111.24,204.84 6.85,60.81 -8.3,122.96 -31.8,132.66 -23.5,9.69 -42.82,26.23 -46.94,9.69 -4.12,-16.54 -8.3,-20.72 -4.18,-44.22 4.12,-23.5 -17.99,-95.34 -17.99,-95.34 0,0 -37.26,-84.26 -34.82,-120.18 2.44,-35.92 -4.12,-77.41 -15.2,-87.04 -11.08,-9.63 -26.23,-19.38 -13.81,-63.83 12.42,-44.45 -54.49,-130.28 -54.49,-130.28l-167.47 115.47z"/>
   <path class="fil6" d="M6784.45 6720.96l13.81 413.11 79.79 44.22c5.83,-2.5 10.91,-6.51 14.68,-11.61 97.9,-147.8 65.81,-575.76 65.81,-575.76l37.31 -276.33 -24.89 -143.39 -60.12 -6.38c23.21,-110.83 38.41,-218.42 13.17,-230.08 -22.46,-10.39 -37.2,-47.7 -46.77,-87.86l0 0 -42.94 292.47c0,0 3.6,26.34 4.88,53.5 0.99,20.19 0.64,40.62 -3.48,51.47 -9.69,24.89 -2.78,69.11 -2.78,69.11 -24.9,43.87 -37.31,125.17 -43.41,203.68 -8.18,104.39 -5.05,203.85 -5.05,203.85z"/>
   <path class="fil13" d="M6878.58 5840.49c0,0 69.63,8.65 91.69,37.66 22.05,29.01 80.14,33.02 80.14,33.02 0,0 66.33,22.11 64.93,27.62 -1.39,5.51 19.33,13.87 60.81,24.89 41.49,11.02 110.26,51.12 110.26,60.81 0,9.69 109.15,117.39 109.15,128.48 0,11.08 33.19,52.22 29.01,125.69 -4.18,73.46 -8.3,165.79 8.3,181 16.6,15.2 0,74.62 0,74.62 -4.55,6.72 -6.99,14.66 -6.99,22.78 0,7.57 2.13,15.01 6.12,21.44 13.81,24.89 -2.73,128.53 -2.73,128.53l1.33 107.76c0,0 -15.2,67.66 2.78,70.44 17.99,2.79 -2.78,33.14 -2.78,33.14 0,0 -15.2,55.3 4.18,80.14 19.38,24.83 24.83,131.26 24.83,131.26l295.95 429.41c0,0 4.18,78.74 -89.77,77.35 -93.95,-1.39 -92.85,17.99 -89.83,35.92 3.02,17.93 -26.23,37.31 -26.23,37.31 0,0 -37.31,19.33 -15.2,42.83 22.11,23.5 85.65,77.35 -19.32,113.27 -12.4,-17.02 -22.67,-35.65 -30.41,-55.24 -8.85,-24.38 -16.33,-49.33 -22.13,-74.59 -5.8,-25.26 -9.69,-105.03 -29.02,-118.84 -19.32,-13.81 -16.59,-80.14 -16.59,-80.14 0,0 27.62,-53.85 -11.02,-75.96 -38.65,-22.11 -600.17,-332.65 -600.17,-332.65l-13.81 -413.11c0,0 -9.69,-305.29 48.34,-407.54 0,0 -6.91,-44.22 2.78,-69.06 9.69,-24.83 -1.39,-105.03 -1.39,-105.03l36.79 -293.22z"/>
   <path class="fil6" d="M6516.48 6006.22c0,0 -138.86,-28.61 -176.18,-9.28 -37.31,19.32 -110.26,34.81 -121.86,45.61 -11.61,10.79 -38.7,2.78 -63.54,67.72 -24.83,64.93 -27.68,131.2 -59.42,161.61 -31.74,30.41 -48.34,51.12 -49.73,73.23 -1.39,22.11 4.12,27.62 -8.3,34.81 -12.42,7.2 -30.41,35.92 -24.9,47 5.51,11.08 287.89,253.88 287.89,253.88 0,0 13.87,92.85 26.29,116.06 12.42,23.21 -13.81,346.78 -41.43,368.89 -27.62,22.11 186.51,20.08 186.51,20.08 0,0 9.63,-212.1 17.93,-223.18 8.3,-11.09 -5.8,-237.92 -5.8,-237.92 0,0 -1.39,-193.41 16.6,-244.53 17.99,-51.12 15.96,-220.86 15.96,-220.86 0,0 15.9,-101.96 35.22,-125.75 19.32,-23.79 -35.22,-127.37 -35.22,-127.37z"/>
   <path class="fil13" d="M6512.35 6002.1c0,0 -138.92,-28.61 -176.23,-9.28 -37.31,19.33 -110.26,34.53 -121.57,45.61 -11.31,11.08 -38.65,2.73 -63.83,67.66 -25.19,64.93 -27.62,131.26 -59.42,161.67 -31.8,30.41 -48.34,51.12 -49.73,73.23 -1.39,22.11 4.18,27.62 -8.24,34.53 -12.42,6.91 -30.41,35.92 -24.89,46.94 5.51,11.03 287.36,254.22 287.36,254.22 0,0 13.81,92.85 26.23,116.06 12.42,23.21 -13.81,346.72 -41.43,368.83 -27.62,22.11 186.5,20.08 186.5,20.08 0,0 9.69,-212.1 17.99,-223.12 8.3,-11.02 -5.8,-237.92 -5.8,-237.92 0,0 -1.33,-193.41 16.59,-244.54 17.93,-51.12 15.96,-221.09 15.96,-221.09 0,0 15.9,-101.96 35.17,-125.69 19.26,-23.74 -34.65,-127.2 -34.65,-127.2z"/>
   <path class="fil6" d="M6497.73 5885.06c10.59,29.88 16.02,61.52 16.02,93.26 0,0 0,0.04 0,0.04 29.2,8.65 59.58,13.06 90.04,13.06 112.51,0 216.66,-59.68 273.51,-156.74 -6.64,-33.87 -11.31,-68.48 -13.5,-103.01 -2.19,-34.53 -425.42,-22.03 -366.06,153.39z"/>
   <path class="fil14" d="M6287.78 5666.75c0.11,174.57 141.79,316.09 316.37,316.09 174.7,0 316.38,-141.67 316.38,-316.37 0,-174.7 -141.68,-316.37 -316.38,-316.37 -149.48,0 -278.64,104.67 -309.54,250.91 -4.52,21.47 -6.83,43.49 -6.83,65.48 0,0.07 0,0.19 0,0.27l0 0.01z"/>
   <path class="fil13" d="M6084.68 6398.96l-75.96 23.5c0,0 6.91,27.62 -15.2,41.43 -22.11,13.81 -19.33,41.49 -19.33,41.49 0,0 -8.3,30.35 -27.62,37.26 -19.32,6.91 -31.8,52.23 -31.8,52.23l-63.54 73.23c0,0 -23.5,19.33 -19.32,29.02 4.18,9.69 -24.89,12.42 -24.89,12.42l15.2 246.16 131.26 24.89 81.24 -8.3 66.33 -24.89 58.03 -34.82 26.46 -67.14 116.06 -176.82 -216.91 -269.66z"/>
   <path class="fil14" d="M5826.34 6729.38c0,0 -168.28,-243.2 -294.27,-111.94 -125.98,131.26 51.13,344 92.56,337.09 41.43,-6.91 239.02,-17.93 239.02,-17.93l-37.31 -207.22z"/>
   <path class="fil1" d="M5477.85 6700.55l155.9 -140.62c30.02,-27.09 76.34,-24.7 103.43,5.33l173.19 192.01c27.08,30.03 24.7,76.34 -5.33,103.43l-155.9 140.62c-30.03,27.08 -76.35,24.7 -103.43,-5.33l-173.19 -192.01c-27.09,-30.04 -24.7,-76.35 5.33,-103.43z"/>
   <path class="fil6" d="M5477.85 6700.55l155.9 -140.62c30.02,-27.09 76.34,-24.7 103.43,5.33l173.19 192.01c27.08,30.03 24.7,76.34 -5.33,103.43l-155.9 140.62c-30.03,27.08 -76.35,24.7 -103.43,-5.33l-173.19 -192.01c-27.09,-30.04 -24.7,-76.35 5.33,-103.43z"/>
   <path class="fil1" d="M5482.59 6680.52l155.9 -140.62c30.02,-27.08 76.34,-24.7 103.43,5.33l173.19 192.01c27.08,30.02 24.69,76.34 -5.33,103.43l-155.89 140.62c-30.04,27.08 -76.35,24.69 -103.43,-5.33l-173.19 -192c-27.09,-30.03 -24.7,-76.35 5.33,-103.43z"/>
   <circle class="fil2" cx="5691.77" cy="6770.58" r="78.75"/>
   <path class="fil6" d="M5770.51 6770.58c0,-43.49 -35.26,-78.74 -78.74,-78.74 -43.49,0 -78.74,35.26 -78.74,78.74 0,43.49 35.26,78.74 78.74,78.74 43.49,0 78.74,-35.26 78.74,-78.74z"/>
   <circle class="fil2" cx="5696.18" cy="6760.6" r="78.75"/>
   <path class="fil14" d="M5717.24 6780.27c-1.39,182.39 375.8,221.04 375.8,221.04l96.33 15.32 43.17 6.85 17.99 -178.03c0,0 -19.79,-2.96 -44.51,-8.7 -36.5,-8.53 -83.8,-23.21 -93.72,-43.81 -16.54,-34.52 -393.72,-194.98 -395.06,-12.65z"/>
   <path class="fil6" d="M6294.63 5601c8.69,0.63 16.91,4.3 23.21,10.33 10.68,11.31 11.26,31.39 25.13,38.36 3.59,1.56 7.48,2.37 11.39,2.37 1.7,0 3.41,-0.15 5.09,-0.45 36.73,-5.22 58.03,-46.43 93.26,-58.03 20.08,-6.5 42.19,-2.26 61.8,5.28 7.88,2.46 14.96,7.02 20.48,13.17 11.61,15.26 3.54,37.72 9,56.23 7.6,25.65 38.24,35.86 64.76,39.23 26.52,3.37 56.41,5.22 74.1,25.24 12.54,14.22 15.72,34.82 13.17,53.44 -0.77,3.24 -1.17,6.56 -1.17,9.9 0,3.33 0.4,6.65 1.17,9.89 7.31,20.72 43.17,17.41 52.52,1.28 6.85,-11.9 4.76,-21.76 20.89,-25.07 10.91,-2.26 23.73,2.32 33.83,5.8 25.98,8.96 53.33,13.56 80.83,13.56 2.21,0 4.51,-0.06 6.69,-0.09 19.46,-41.84 29.59,-87.46 29.59,-133.63 0,-174.73 -141.7,-316.43 -316.43,-316.43 -149,0 -277.84,104.04 -309.28,249.63l-0.01 -0z"/>
   <path class="fil11" d="M6695.85 5797.61c-0.78,-3.24 -1.18,-6.57 -1.18,-9.9 0,-3.33 0.4,-6.66 1.17,-9.89 2.5,-18.74 -0.64,-39.29 -13.17,-53.44 -17.41,-20.02 -47.58,-21.94 -74.1,-25.24 -26.52,-3.31 -57.16,-13.52 -64.76,-39.17 -5.46,-18.51 2.78,-41.02 -9,-56.29 -5.48,-6.15 -12.56,-10.69 -20.43,-13.11 -19.67,-7.6 -41.78,-11.61 -61.86,-5.34 -35.22,11.61 -56.52,52.92 -93.26,58.03 -1.68,0.31 -3.38,0.46 -5.09,0.46 -3.91,0 -7.8,-0.81 -11.39,-2.37 -13.87,-6.96 -14.45,-27.04 -25.12,-38.3 -16.77,-17.76 -48.63,-6.32 -69.17,-19.5 -13.4,-8.65 -18.57,-25.42 -22.28,-40.91 -7.31,-30.06 -13.17,-61.57 -6.15,-91.63 12.01,-51.41 58.03,-86.64 87.04,-130.51 27.33,-40.91 42.65,-92.85 83.74,-119.77 41.08,-26.93 93.83,-20.95 140.14,-7.2 21.7,6.44 43.17,14.45 65.63,17.41 37.37,4.59 74.85,-5.8 112.46,-6.85 2.58,-0.06 5.2,-0.12 7.8,-0.12 50.45,0 99.72,15.83 140.71,45.2 9.7,6.37 17.99,14.75 24.24,24.55 7.48,13.23 8.47,29.02 10.74,43.99 4.37,28.53 14.25,56.04 29.02,80.85 11.61,19.44 26.17,37.08 36.67,57.16 10.5,20.08 16.66,43.81 9.93,65.4 -3.54,11.61 -10.56,21.65 -13.17,33.31 -6.15,26.98 11.61,52.75 23.73,77.64 10.68,20.65 16.28,43.64 16.28,66.91 0,2.22 -0.07,4.5 -0.16,6.7 -1.37,25.7 -13.37,49.7 -33.08,66.22 -19.56,15.32 -45.26,20.43 -70.04,21.24 -2.76,0.08 -5.57,0.14 -8.36,0.14 -27.52,0 -54.89,-4.61 -80.89,-13.55 -10.16,-3.48 -23.21,-8.07 -33.83,-5.81 -16.13,3.31 -14.04,13.17 -20.89,25.07 -8.81,16.25 -44.62,19.33 -51.93,-1.39z"/>
   <path class="fil6" d="M6525.41 7581.59l178.21 -139.27 280.51 -276.33c0,0 -37.72,-1.86 -92.85,-4.18 -10.04,10.21 -18.98,23.21 -19.56,37.72 -1.39,33.78 -75.84,2.38 -114.49,21.7 -38.65,19.32 -227.94,261.54 -261.13,259.97 -33.19,-1.57 -59.36,-16.83 -73.23,6.67 -0.3,0.54 -0.63,1.07 -0.99,1.56 -5.5,6.29 -12.9,10.67 -21.06,12.48l124.59 79.68z"/>
   <path class="fil11" d="M6166.21 7571.9l89.54 285.85 14.04 44.92 42.65 -11.61 94.01 -25.82 418.74 -115.02c0,0 78.69,-1.04 150.88,-40.21 79.79,-43.41 169.79,-65.22 260.2,-56.75 55.36,5.17 116.93,-18.69 168.28,-113.04 0,0 116.06,-342.37 -176.87,-441.02 -292.93,-98.65 -306.86,52.23 -306.86,52.23 0,0 -1.51,0.81 -3.94,2.44 -11.61,7.25 -43.23,30.06 -44.39,58.03 -1.39,33.78 -75.85,2.32 -114.49,21.65 -38.65,19.32 -227.94,261.59 -261.13,260.03 -33.2,-1.57 -59.37,-16.83 -73.23,6.67 0,0.52 -0.64,0.99 -0.99,1.51 -10.21,14.1 -40.97,17.41 -61.33,17.93 -11.09,0.35 -19.15,0 -19.15,0l-2.61 0.81 -21.7 6.04 -151.63 45.38z"/>
   <path class="fil6" d="M6189.37 7016.62l43.17 6.85 17.99 -178.03c0,0 -19.79,-2.96 -44.51,-8.7 6.56,24.66 -8.3,120.81 -16.65,179.89z"/>
   <path class="fil6" d="M7319.07 6183.91c0,0 128.48,-37.31 96.68,327.46 -31.8,364.77 -269.37,595.2 -269.37,595.2 0,0 -273.55,120.18 -396.51,100.85 -122.96,-19.32 -212.74,-23.21 -212.74,-23.21 -38.65,-19.52 -81.1,-30.91 -124.35,-33.16 -69.11,-2.78 -214.13,-45.61 -216.91,-59.42 -2.78,-13.81 35.92,-216.91 19.33,-232.11 0,0 193.41,7.95 212.79,21.94 19.38,13.98 46.94,3.94 67.66,0 20.72,-3.95 84.31,-59.25 210.01,-10.85 0,0 42.82,4.12 59.42,-6.91 16.59,-11.03 43.17,-2.79 43.17,-2.79 0,0 26.05,-9.67 30.06,-15.47 4,-5.8 37.25,0 37.25,0 2.02,0.98 4.23,1.49 6.47,1.49 6.77,0 12.67,-4.61 14.3,-11.19 4.34,-11.29 10.93,-21.65 19.33,-30.35 8.4,-8.71 37.31,-210.01 107.76,-288.75 0,0 20.72,-17.99 15.2,-40.1 -5.52,-22.11 114.83,-336.91 280.45,-292.63z"/>
   <path class="fil13" d="M7315.94 6155.82c0,0 128.48,-37.31 96.74,327.46 -31.74,364.77 -269.72,595.44 -269.72,595.44 0,0 -273.55,120.18 -396.51,100.85 -122.96,-19.32 -212.73,-23.5 -212.73,-23.5 -38.68,-19.56 -81.08,-30.9 -124.35,-33.15 -69.05,-2.78 -214.13,-45.61 -216.91,-59.42 -2.79,-13.81 35.92,-216.91 19.38,-232.11 0,0 193.41,7.95 212.73,21.93 19.32,13.98 47,3.94 67.72,0 20.72,-3.94 84.26,-59.19 210.01,-10.85 0,0 42.83,4.12 59.36,-6.91 16.54,-11.03 43.23,-2.79 43.23,-2.79 0,0 25.88,-9.69 30,-15.2 4.12,-5.51 37.31,0 37.31,0 2,1 4.22,1.51 6.46,1.51 6.74,0 12.62,-4.59 14.24,-11.13 4.33,-11.32 10.92,-21.69 19.33,-30.41 8.41,-8.72 37.31,-210.01 107.76,-288.75 0,0 20.72,-17.99 15.2,-40.04 -5.51,-22.05 114.67,-337.15 280.74,-292.93z"/>
   <path class="fil6" d="M6317.84 7526.52l182.44 220.51c0.7,-0.64 1.16,-1.1 1.16,-1.28 1.39,-4.18 19.33,-51.13 15.2,-53.91 -4.12,-2.79 -35.92,-71.84 -99.46,-100.86 -38.82,-17.41 -64.24,-49.26 -78.11,-71.08l-21.24 6.61z"/>
   <path class="fil6" d="M6320.34 7908.59l19.96 11.61c0,0 46.42,-37.14 92.32,-74.51 45.9,-37.37 90.7,-73.98 91.45,-76.07 1.33,-4.12 19.26,-51.13 15.15,-53.85 -2.15,-1.45 -11.61,-20.6 -29.01,-42.77 -123.72,-34.82 -44.97,51.24 -34.47,55.19 0,0 -150.87,-34.82 -158.88,129.46 -0.26,4.09 -0.4,8.28 -0.4,12.39 0,12.93 1.32,25.88 3.87,38.55l0.01 0.02z"/>
   <path class="fil13" d="M6472.9 7978.1l26.29 15.2 266.93 6.91c0,0 57.22,34.82 94.35,45.38 4.35,1.37 8.88,2.35 13.41,2.95 16.01,1.23 32.25,1.96 48.35,1.96 8.63,0 17.34,-0.22 25.9,-0.59 20.43,-0.52 36.27,-1.39 36.27,-1.39 0,0 -12.65,-336.57 -22.17,-371.39 -4.53,-16.94 -26.87,-13.23 -48.92,-4.76 -16.5,6.73 -32.57,14.86 -47.74,24.21 -15.17,9.35 -113.27,10.97 -131.26,20.72 -17.99,9.75 -69.06,-5.8 -100.86,0 -31.8,5.8 -88.38,-37.43 -88.38,-37.43 -154.76,-51.07 -67.72,44.22 -56.69,48.39 0,0 -150.53,-34.81 -158.83,129.46 -8.3,164.28 143.34,120.37 143.34,120.37z"/>
   <path class="fil13" d="M6858.38 7848.24c2.9,69.63 57.16,156.04 89.48,201.71 20.43,-0.52 36.27,-1.39 36.27,-1.39 0,0 -12.65,-336.57 -22.17,-371.39 -4.53,-16.94 -26.87,-13.23 -48.92,-4.76 -26.52,49.9 -56.98,119.71 -54.67,175.83z"/>
   <path class="fil6" d="M6858.38 7848.24c2.9,69.63 57.16,156.04 89.48,201.71 20.43,-0.52 36.27,-1.39 36.27,-1.39 0,0 -12.65,-336.57 -22.17,-371.39 -4.53,-16.94 -26.87,-13.23 -48.92,-4.76 -26.52,49.9 -56.98,119.71 -54.67,175.83z"/>
   <path class="fil12" d="M6812.77 7857.46c18.34,67.2 18.16,142.57 47.41,188.13 4.36,1.36 8.88,2.35 13.41,2.95 16.01,1.23 32.25,1.96 48.35,1.96 8.63,0 17.34,-0.22 25.9,-0.59 20.43,-0.52 36.27,-1.39 36.27,-1.39 0,0 -12.65,-336.57 -22.17,-371.39 -4.53,-16.94 -26.87,-13.23 -48.92,-4.76 -16.5,6.73 -32.57,14.86 -47.74,24.21 -15.17,9.35 -75.95,74.88 -52.51,160.88z"/>
   <path class="fil6" d="M5892.9 7175.85c0,0 132.42,43 244.65,195.73l-244.65 -195.73z"/>
   <g>
    <path class="fil6" d="M6969.1 5518.08c-0.22,0.98 -0.49,1.96 -0.81,2.9 -1.26,3.94 -2.81,7.87 -4.59,11.61 1.36,-4.98 3.18,-9.86 5.4,-14.51z"/>
    <path class="fil6" d="M6219.83 5451.06c2.28,-9.68 5.76,-19.06 10.28,-27.91 -0.7,2.38 -1.45,4.76 -2.03,7.2 -7.02,30.06 -1.16,61.57 6.15,91.63 3.78,15.5 8.88,32.27 22.28,40.91 20.6,13.17 52.23,1.68 69.17,19.44 10.67,11.31 11.26,31.39 25.18,38.35 3.59,1.56 7.46,2.37 11.38,2.37 1.71,0 3.41,-0.16 5.09,-0.46 36.67,-5.22 58.03,-46.42 93.25,-58.03 20.08,-6.5 42.13,-2.26 61.8,5.34 7.87,2.43 14.95,6.96 20.43,13.11 11.61,15.26 3.54,37.78 9,56.23 7.6,25.65 38.24,35.86 64.76,39.17 26.52,3.31 56.41,5.22 74.1,25.3 12.54,14.16 15.73,34.82 13.17,53.44 -0.77,3.24 -1.15,6.57 -1.15,9.9 0,3.33 0.39,6.65 1.15,9.89 7.31,20.72 43.17,17.41 52.23,1.28 6.85,-11.89 4.81,-21.76 20.94,-25.07 10.85,-2.26 23.68,2.32 33.78,5.8 25.99,8.94 53.36,13.54 80.88,13.54 2.79,0 5.61,-0.06 8.36,-0.15 24.78,-0.87 50.54,-5.8 70.04,-21.24 8.9,-7.07 16.24,-16 21.48,-26.1 -4.54,18.41 -14.94,34.87 -29.6,46.89 -19.5,15.32 -45.2,20.43 -70.04,21.24 -2.76,0.09 -5.61,0.15 -8.39,0.15 -27.49,0 -54.83,-4.6 -80.81,-13.55 -10.16,-3.48 -23.21,-8.07 -33.83,-5.8 -16.13,3.31 -14.1,13.17 -20.89,25.07 -9.4,16.37 -45.2,19.44 -52.57,-1.28 -0.75,-3.24 -1.14,-6.56 -1.14,-9.89 0,-3.33 0.39,-6.65 1.15,-9.89 2.56,-18.74 -0.58,-39.29 -13.11,-53.44 -17.76,-20.02 -47.64,-21.94 -74.16,-25.24 -26.52,-3.31 -57.16,-13.52 -64.7,-39.17 -5.52,-18.51 2.78,-41.03 -9,-56.29 -5.51,-6.13 -12.6,-10.67 -20.48,-13.11 -19.67,-7.6 -41.72,-11.61 -61.8,-5.34 -35.28,11.61 -56.58,52.93 -93.25,58.03 -1.68,0.3 -3.39,0.45 -5.09,0.45 -3.92,0 -7.8,-0.81 -11.39,-2.37 -13.93,-6.96 -14.51,-27.04 -25.19,-38.3 -16.77,-17.76 -48.57,-6.32 -69.11,-19.5 -13.46,-8.65 -18.57,-25.42 -22.34,-40.91 -7.19,-30.11 -13.06,-61.63 -5.98,-91.69z"/>
   </g>
   <path class="fil6" d="M6990.52 6556.8c-25.3,34.18 -54.2,65.8 -76.6,101.96 -22.4,36.15 -38.24,78.34 -33.54,120.58 23.21,-23.79 33.77,-56.64 48.39,-86.46 24.72,-50.48 61.74,-93.31 92.85,-139.73 5.8,-8.88 44.16,-60.06 24.83,-62.5 -15.9,-2.03 -47.29,54.49 -55.94,66.16z"/>
  </g>
 </g>
</svg>
